<svg version="1.1" id="Capa_1" xmlns="http://www.w3.org/2000/svg" x="0" y="0" width="70.667" height="58.25" viewBox="0 6.333 70.667 58.25" xml:space="preserve"><path d="M67.667 38.552h-1.5V9.732c0-1.652-1.348-3-3-3H3c-1.654 0-3 1.348-3 3V51.65c0 1.65 1.346 3 3 3h21.517a2.948 2.948 0 0 0-.184 1v5.284c0 1.65 1.346 3 3 3h14.334c1.652 0 3-1.35 3-3V55.65c0-.355-.07-.69-.188-1h8.853v6.284c0 1.65 1.347 3 3 3h11.334c1.652 0 3-1.35 3-3V41.552c0-1.654-1.347-3-3-3zM3 8.732h60.167a1 1 0 0 1 1 1V38.55h-7.834c-1.653 0-3 1.348-3 3v3.883H2v-35.7c0-.55.448-1 1-1zm38.667 53.204H27.333a1 1 0 0 1-1-1h16.334c0 .55-.45 1-1 1zm1-6.288v3.285H26.333v-3.285a1 1 0 0 1 1-1h14.334c.55 0 1 .45 1 1zm-1-3H3c-.552 0-1-.445-1-1v-4.215h51.333v5.215H41.667zm27 8.288c0 .55-.45 1-1 1H56.333a1 1 0 0 1-1-1V41.553c0-.553.445-1 1-1h11.334a1 1 0 0 1 1 1v19.384z"/></svg>