<svg version="1.1" id="Capa_1" xmlns="http://www.w3.org/2000/svg" x="0" y="0" width="70.667" height="70.667" viewBox="0 0 70.667 70.667" xml:space="preserve"><path d="M67.667 38.553h-1.5V9.733c0-1.653-1.347-3-3-3H3c-1.654 0-3 1.347-3 3V51.65c0 1.65 1.346 3 3 3h21.517c-.112.31-.184.645-.184 1v5.284c0 1.652 1.346 3 3 3h14.334c1.653 0 3-1.348 3-3V55.65c0-.355-.07-.69-.187-1h8.853v6.284c0 1.652 1.347 3 3 3h11.334c1.653 0 3-1.348 3-3v-19.38c0-1.656-1.347-3-3-3zM3 8.733h60.167c.55 0 1 .447 1 1V38.55h-7.834c-1.653 0-3 1.348-3 3v3.883H2v-35.7c0-.55.448-1 1-1zm38.667 53.203H27.333c-.552 0-1-.45-1-1h16.334c0 .55-.45 1-1 1zm1-6.288v3.285H26.333v-3.285c0-.55.448-1 1-1h14.334c.55 0 1 .45 1 1zm-1-3H3c-.552 0-1-.446-1-1v-4.215h51.333v5.215H41.667zm27 8.288c0 .55-.45 1-1 1H56.333c-.554 0-1-.45-1-1V41.554c0-.553.446-1 1-1h11.334c.55 0 1 .447 1 1v19.383z"/></svg>