<svg version="1.1" xmlns="http://www.w3.org/2000/svg" x="0" y="0" width="470" height="333" viewBox="0 0 470 333" xml:space="preserve"><g id="Layer_1"><path d="M0 22.6v290.2C0 323.9 9.1 333 20.2 333h429.6c11.1 0 20.2-9.1 20.2-20.2V22.6c0-11.1-9.1-20.2-20.2-20.2H20.2C9.1 2.4 0 11.5 0 22.6zM447.6 4.1c11 0 20 9 20 20v287.2c0 11-9 20-20 20H22.4c-11 0-20-9-20-20V24.1c0-11 9-20 20-20h425.2z" fill="#BFBFBF"/><path d="M2.4 24.1v287.2c0 11 9 20 20 20h425.1c11 0 20-9 20-20V24.1c0-11-9-20-20-20H22.4c-11 0-20 9-20 20zm14.7 142.5c0-1.7 1.4-3 3.1-3 1.7 0 3 1.4 3 3.1s-1.4 3-3.1 3c-1.7 0-3.1-1.4-3-3.1zm440.8.3c-.1 6.4-5.5 11.5-11.9 11.4-6.4-.1-11.5-5.5-11.4-11.9.1-6.4 5.5-11.5 11.9-11.4 6.5.2 11.5 5.5 11.4 11.9zM425.8 22.2v291h-388v-291h388z" fill="#FFF"/><circle cx="20.1" cy="166.6" r="3.1" fill="#0C0C0C"/><path d="M434.7 166.4c-.1 6.4 4.9 11.7 11.4 11.9 6.4.1 11.7-4.9 11.9-11.4.1-6.4-4.9-11.7-11.4-11.9-6.5-.1-11.8 5-11.9 11.4zm21.1.5c-.1 5.2-4.5 9.4-9.7 9.3-5.2-.1-9.4-4.4-9.3-9.7.1-5.2 4.5-9.4 9.7-9.3 5.2.1 9.4 4.4 9.3 9.7z" fill="#BFBFBF"/><circle cx="446.3" cy="166.7" r="9.5" fill="#FFF"/></g></svg>