<svg version="1.1" id="Capa_1" xmlns="http://www.w3.org/2000/svg" x="0" y="0" width="313.333" height="700" viewBox="842.5 0 313.333 700" xml:space="preserve"><path d="M1145.787 514.735V188.422l-27.56-61.43c-2.11-4.72-6.632-7.65-11.804-7.65s-9.695 2.932-11.797 7.64l-15.618 34.81c-3.9-57.874-27.052-112.746-66.186-156.092a17.293 17.293 0 0 0-12.825-5.702 17.29 17.29 0 0 0-12.82 5.7c-39.135 43.344-62.285 98.216-66.186 156.092l-15.613-34.8c-2.11-4.72-6.632-7.65-11.804-7.65-5.17 0-9.69 2.932-11.797 7.642L854.21 188.42v326.31a57.003 57.003 0 0 0-8.965 30.694v27.333a6.27 6.27 0 0 0 5.318 6.197l3.646.56v38.63l-6.377 55.315a6.267 6.267 0 0 0 1.55 4.89 6.27 6.27 0 0 0 4.68 2.1h12.866l-.795 12.894a6.283 6.283 0 0 0 1.69 4.682 6.28 6.28 0 0 0 4.57 1.975h42.36a6.27 6.27 0 0 0 6.258-6.656l-.793-12.895h12.868a6.27 6.27 0 0 0 6.23-6.99l-6.38-55.348V591.62l13.153 2.022v59.303a6.27 6.27 0 0 0 6.272 6.27h35.814a6.27 6.27 0 0 0 6.27-6.27v-32.84h11.1v32.84a6.27 6.27 0 0 0 6.272 6.27h35.813a6.27 6.27 0 0 0 6.272-6.27l-.005-59.303 13.163-2.023v26.503l-6.378 55.335a6.272 6.272 0 0 0 6.23 6.99h12.866l-.794 12.895a6.27 6.27 0 0 0 6.258 6.657h42.36a6.27 6.27 0 0 0 6.258-6.657l-.793-12.895h12.867a6.27 6.27 0 0 0 4.68-2.1 6.266 6.266 0 0 0 1.55-4.89l-6.38-55.335v-38.61l3.65-.56a6.27 6.27 0 0 0 5.318-6.197v-27.333a57.004 57.004 0 0 0-8.965-30.688zm-91.887 66.22v-29.258h88.312v15.68l-88.312 13.58zm-133.504-384.92V430.11a215.92 215.92 0 0 1-28.272 40.616l-25.37 28.743V196.034h53.642zm-51.45 319.904l32.58-36.915a228.165 228.165 0 0 0 44.563-76.396v136.523h-87.856a44.38 44.38 0 0 1 10.71-23.214zm103.203-280.164h55.69c8.772 30.373 13.302 61.704 13.494 93.508h-82.68c.193-31.804 4.724-63.137 13.495-93.508zm3.863-12.542c1.603-4.85 3.31-9.676 5.134-14.472 3.643-9.583 12.124-13 18.848-13 6.723 0 15.206 3.415 18.848 13a351.718 351.718 0 0 1 5.135 14.472h-47.965zm-17.38 118.59h82.726v203.498H958.63V341.825zm95.267 197.33v-136.51a228.15 228.15 0 0 0 44.56 76.382l32.6 36.915a44.504 44.504 0 0 1 10.706 23.215H1053.9v-.002zm25.702-343.12h53.644v303.438l-25.382-28.745a215.796 215.796 0 0 1-28.26-40.594l-.002-234.098zm26.47-63.925c.054-.122.1-.227.352-.227.253 0 .297.104.355.233l23.05 51.376h-46.812l23.054-51.383zM996.487 14.1c1.815-2.01 5.204-2.015 7.025.003 31.91 35.343 52.65 78.742 60.27 125.09H936.216c7.62-46.35 28.36-89.746 60.272-125.093zm-63.55 165.208c0-9.26.526-18.463 1.55-27.574h130.987v-.375a247.524 247.524 0 0 1 1.587 27.95V402.2a215.564 215.564 0 0 1-13.162-74.172h-.033c-.394-42.42-8.212-84.03-23.295-123.726-4.868-12.81-16.87-21.086-30.573-21.086s-25.703 8.276-30.57 21.086C954.34 244 946.523 285.61 946.13 328.03h-.037c0 25.518-4.526 50.583-13.152 74.137V179.31h-.002zm-39.715-47.2c.055-.122.1-.227.352-.227s.3.11.355.233l23.05 51.376h-46.813l23.055-51.383zm14.862 555.348h-29.02l.43-7.01h28.157l.434 7.01zM861.1 667.906l4.97-43.118h55.013l4.97 43.118H861.1zm59.296-55.706h-53.644v-30.756l53.644 8.25V612.2zm-62.61-44.824v-15.68h88.302v29.26l-88.3-13.58zm124.116 79.3h-23.27V606.78c0-14.14 9.983-25.988 23.27-28.873v68.77zm23.643-75.71v36.6h-11.1v-36.6a6.27 6.27 0 0 0-6.272-6.27c-11.503 0-21.938 4.643-29.543 12.148v-18.98h82.727v18.98c-7.604-7.505-18.04-12.148-29.543-12.148a6.27 6.27 0 0 0-6.27 6.27zm12.542 75.71v-68.77c13.255 2.878 23.217 14.678 23.267 28.77l.005 40h-23.273zm102.847 40.782h-29.022l.43-7.01h28.16l.432 7.01zm-46.988-19.552l4.97-43.118h55.015l4.97 43.118h-64.954zm59.3-55.706H1079.6v-22.508l53.645-8.248V612.2z"/><path d="M980.506 300.58c0-8.776 7.14-15.916 15.916-15.916v-12.542c-15.692 0-28.458 12.768-28.458 28.458h12.542zM1019.485 300.58h12.542c0-15.692-12.768-28.458-28.458-28.458v12.542c8.774 0 15.915 7.14 15.915 15.916z"/></svg>