<svg version="1.1" id="Capa_1" xmlns="http://www.w3.org/2000/svg" x="0" y="0" viewBox="0 0 446.495 446.495" xml:space="preserve"><path d="M316.238 328.324v-208.14l-17.58-39.182c-1.345-3.01-4.23-4.88-7.528-4.88s-6.184 1.87-7.525 4.874l-9.962 22.203c-2.488-36.916-17.255-71.916-42.216-99.564A11.03 11.03 0 0 0 223.247 0a11.03 11.03 0 0 0-8.178 3.635c-24.963 27.647-39.73 62.647-42.218 99.563L162.892 81c-1.345-3.01-4.23-4.88-7.528-4.88-3.298 0-6.182 1.87-7.525 4.875l-17.584 39.188V328.32a36.358 36.358 0 0 0-5.718 19.578v17.434a3.998 3.998 0 0 0 3.392 3.953l2.326.358v24.64l-4.067 35.282a3.998 3.998 0 0 0 3.974 4.458h8.205l-.507 8.225a4.002 4.002 0 0 0 3.993 4.246h27.02a4 4 0 0 0 3.992-4.246l-.506-8.225h8.208a3.998 3.998 0 0 0 3.974-4.458l-4.07-35.303v-16.897l8.39 1.29v37.826a4 4 0 0 0 4 4h22.844a4 4 0 0 0 4-4v-20.945h7.08v20.946a4 4 0 0 0 4 4h22.844a4 4 0 0 0 4-4l-.003-37.825 8.395-1.29v16.905l-4.068 35.295a4 4 0 0 0 3.973 4.458h8.207l-.506 8.225a3.997 3.997 0 0 0 3.993 4.246h27.02a4 4 0 0 0 3.992-4.246l-.506-8.225h8.206a3.998 3.998 0 0 0 3.973-4.458l-4.07-35.295v-24.627l2.328-.358a4 4 0 0 0 3.393-3.953v-17.434a36.404 36.404 0 0 0-5.722-19.574zm-58.61 42.24V351.9h56.33v10.002l-56.33 8.66zM172.472 125.04v149.305a137.707 137.707 0 0 1-18.034 25.908l-16.183 18.334V125.04h34.217zm-32.818 204.052l20.782-23.546a145.53 145.53 0 0 0 28.425-48.73V343.9h-56.038a28.306 28.306 0 0 1 6.832-14.808zm65.83-178.702h35.522a219.292 219.292 0 0 1 8.607 59.644h-52.737a219.248 219.248 0 0 1 8.607-59.644zm2.463-8a221.2 221.2 0 0 1 3.275-9.23c2.323-6.114 7.733-8.293 12.022-8.293 4.288 0 9.7 2.178 12.022 8.292a224.122 224.122 0 0 1 3.275 9.23h-30.593zm-11.086 75.643h52.768v129.8H196.86v-129.8zM257.63 343.9v-87.074a145.526 145.526 0 0 0 28.423 48.72l20.793 23.547a28.392 28.392 0 0 1 6.83 14.807h-56.045zm16.393-218.86h34.218V318.59l-16.19-18.335a137.607 137.607 0 0 1-18.026-25.893V125.04zm16.886-40.774c.034-.077.063-.144.224-.144s.19.066.227.15l14.703 32.77H276.2l14.706-32.776zm-69.9-75.27c1.16-1.284 3.32-1.286 4.482 0 20.353 22.545 33.583 50.227 38.444 79.79h-81.37c4.86-29.564 18.09-57.245 38.445-79.79zm-40.534 105.377c0-5.907.335-11.777.987-17.588h83.55v-.24c.67 5.89 1.012 11.84 1.012 17.828v142.172a137.49 137.49 0 0 1-8.396-47.31h-.02c-.252-27.058-5.24-53.6-14.86-78.92-3.105-8.17-10.76-13.45-19.5-13.45-8.742 0-16.396 5.28-19.5 13.45-9.622 25.32-14.61 51.862-14.86 78.92h-.024c0 16.276-2.887 32.264-8.39 47.288v-142.15zM155.14 84.266c.034-.077.063-.144.223-.144s.192.07.227.15l14.702 32.77h-29.86l14.707-32.776zm9.48 354.23h-18.512l.275-4.472h17.96l.276 4.47zm-29.97-12.472l3.17-27.503h35.09l3.17 27.504h-41.43zm37.822-35.532h-34.217v-19.618l34.217 5.262v14.356zm-39.935-28.59v-10.003h56.323v18.663l-56.323-8.662zm79.167 50.58H196.86v-25.447c0-9.02 6.37-16.577 14.844-18.417v43.864zm15.08-48.29v23.344h-7.08V364.19a4 4 0 0 0-4-4c-7.337 0-13.993 2.962-18.844 7.75v-12.106h52.767v12.106c-4.85-4.787-11.507-7.75-18.844-7.75a4 4 0 0 0-4 4zm8 48.29v-43.864c8.455 1.835 14.81 9.362 14.84 18.35l.004 25.514h-14.844zm65.6 26.013h-18.51l.274-4.47h17.962l.275 4.47zm-29.97-12.47l3.17-27.504h35.09l3.17 27.504h-41.43zm37.824-35.533H274.02v-14.357l34.218-5.26v19.617z"/><path d="M210.813 191.725c0-5.598 4.554-10.152 10.152-10.152v-8c-10.01 0-18.152 8.144-18.152 18.152h8zM235.676 191.725h8c0-10.01-8.144-18.152-18.152-18.152v8c5.597 0 10.152 4.554 10.152 10.152z"/></svg>