<svg version="1.1" id="Capa_1" xmlns="http://www.w3.org/2000/svg" x="0" y="0" viewBox="842.5 0 313.333 700" xml:space="preserve"><path d="M1145.787 514.735V188.422l-27.561-61.43c-2.109-4.719-6.631-7.65-11.803-7.65s-9.695 2.932-11.797 7.641l-15.618 34.809c-3.901-57.874-27.052-112.746-66.186-156.092a17.293 17.293 0 0 0-12.825-5.702 17.29 17.29 0 0 0-12.82 5.7c-39.135 43.344-62.285 98.216-66.186 156.092l-15.614-34.801c-2.11-4.719-6.632-7.649-11.804-7.649-5.17 0-9.691 2.932-11.797 7.642L854.21 188.42v326.309a57.003 57.003 0 0 0-8.965 30.695v27.333a6.269 6.269 0 0 0 5.318 6.197l3.646.561v38.63l-6.376 55.314a6.267 6.267 0 0 0 1.549 4.89 6.27 6.27 0 0 0 4.682 2.1h12.865l-.794 12.895a6.283 6.283 0 0 0 1.691 4.682 6.28 6.28 0 0 0 4.569 1.975h42.359a6.271 6.271 0 0 0 6.259-6.657l-.793-12.895h12.868a6.27 6.27 0 0 0 6.231-6.99l-6.38-55.347V591.62l13.152 2.022v59.303a6.271 6.271 0 0 0 6.271 6.271h35.814a6.271 6.271 0 0 0 6.271-6.271v-32.839h11.1v32.839a6.271 6.271 0 0 0 6.271 6.271h35.813a6.271 6.271 0 0 0 6.271-6.271l-.005-59.303 13.163-2.023v26.504l-6.378 55.335a6.272 6.272 0 0 0 6.229 6.99h12.867l-.794 12.895a6.27 6.27 0 0 0 6.258 6.657h42.361a6.271 6.271 0 0 0 6.257-6.657l-.793-12.895h12.867a6.269 6.269 0 0 0 4.681-2.1 6.266 6.266 0 0 0 1.548-4.89l-6.378-55.335v-38.609l3.648-.561a6.27 6.27 0 0 0 5.319-6.197v-27.333a57.004 57.004 0 0 0-8.965-30.688zm-91.887 66.221v-29.259h88.312v15.681l-88.312 13.578zM920.396 196.035v234.074a215.92 215.92 0 0 1-28.272 40.617l-25.371 28.743V196.035h53.643zm-51.451 319.904l32.581-36.914a228.165 228.165 0 0 0 44.563-76.396v136.524h-87.855a44.38 44.38 0 0 1 10.711-23.214zm103.204-280.163h55.691c8.772 30.373 13.302 61.704 13.494 93.508h-82.68c.193-31.804 4.724-63.137 13.495-93.508zm3.864-12.542a348.243 348.243 0 0 1 5.134-14.472c3.643-9.583 12.124-13 18.848-13 6.723 0 15.206 3.415 18.848 13a351.718 351.718 0 0 1 5.135 14.472h-47.965zm-17.381 118.591h82.727v203.497h-82.727V341.825zm95.268 197.328v-136.51a228.15 228.15 0 0 0 44.561 76.383l32.598 36.915a44.504 44.504 0 0 1 10.707 23.214H1053.9v-.002zm25.702-343.118h53.644v303.437l-25.382-28.745a215.796 215.796 0 0 1-28.261-40.594l-.001-234.098zm26.47-63.926c.054-.121.1-.226.352-.226.253 0 .297.104.355.233l23.052 51.376h-46.813l23.054-51.383zM996.487 14.102c1.815-2.011 5.204-2.015 7.025.003 31.909 35.343 52.65 78.742 60.271 125.089H936.215c7.619-46.348 28.36-89.745 60.272-125.092zM932.938 179.31c0-9.261.525-18.463 1.548-27.574h130.988v-.375a247.524 247.524 0 0 1 1.587 27.948v222.893a215.564 215.564 0 0 1-13.163-74.172h-.033c-.394-42.42-8.212-84.03-23.295-123.726-4.868-12.811-16.869-21.086-30.573-21.086s-25.703 8.276-30.571 21.086C954.342 244 946.524 285.61 946.13 328.03h-.037c0 25.518-4.526 50.583-13.152 74.137V179.31h-.003zm-39.716-47.201c.055-.121.101-.226.352-.226s.301.109.355.233l23.05 51.376h-46.812l23.055-51.383zm14.862 555.349h-29.021l.431-7.01h28.157l.433 7.01zM861.1 667.906l4.97-43.118h55.013l4.971 43.118H861.1zm59.296-55.706h-53.644v-30.756l53.644 8.249V612.2zm-62.609-44.824v-15.681h88.301v29.261l-88.301-13.58zm124.115 79.3h-23.271V606.78c0-14.14 9.984-25.988 23.271-28.873v68.769zm23.643-75.709v36.6h-11.101v-36.6a6.27 6.27 0 0 0-6.271-6.271c-11.503 0-21.938 4.643-29.543 12.148v-18.979h82.727v18.979c-7.604-7.505-18.041-12.148-29.543-12.148a6.27 6.27 0 0 0-6.269 6.271zm12.542 75.709v-68.769c13.255 2.877 23.217 14.677 23.267 28.769l.005 40h-23.272zm102.847 40.782h-29.022l.431-7.01h28.16l.431 7.01zm-46.988-19.552l4.97-43.118h55.015l4.97 43.118h-64.955zm59.299-55.706h-53.644v-22.508l53.644-8.248V612.2z"/><path d="M980.506 300.58c0-8.776 7.14-15.916 15.916-15.916v-12.542c-15.692 0-28.458 12.768-28.458 28.458h12.542zM1019.485 300.58h12.542c0-15.692-12.768-28.458-28.458-28.458v12.542c8.775-.001 15.916 7.14 15.916 15.916z"/></svg>