<svg version="1.1" xmlns="http://www.w3.org/2000/svg" x="0" y="0" width="153.333" height="152.333" viewBox="0 0 153.333 152.333" xml:space="preserve"><path d="M140.789 76.331c0 35.65-28.898 64.55-64.549 64.55s-64.551-28.899-64.551-64.55c0-35.65 28.9-64.55 64.551-64.55s64.549 28.9 64.549 64.55" id="Inner_Black"/><path fill="#FFF" d="M49.479 61.3c0-2.997-.346-19.365-.577-21.094-.345-2.767-1.844-3.228-3.803-3.228h-5.764c-.576 0-.922-.115-.922-.807v-3.342c0-.461.346-.577.807-.577 1.498 0 6.57.346 18.097.346 2.997 0 14.524-.346 17.175-.346 15.676 0 28.125 1.384 39.074 10.49 7.609 6.34 12.91 15.907 12.91 29.278 0 13.257-3.803 22.017-11.41 30.316-11.182 12.103-30.891 12.218-38.152 12.218-1.846 0-15.447-.346-21.787-.346-10.028 0-14.639.346-16.253.346-.576 0-.807-.23-.807-1.037v-2.997c0-.462.346-.692.922-.692h5.994c2.19 0 3.458-.922 3.689-2.766.346-2.421.807-28.357.807-37.117V61.3zm17.29 11.181c0 1.498.115 21.094.231 28.241 0 2.305.461 4.148 1.959 6.34 1.383 2.074 5.302 2.766 9.222 2.766 6.686 0 15.561-3.342 21.553-11.295 4.611-6.11 8.186-15.562 8.186-26.283 0-9.452-3.918-19.134-9.336-25.128-6.109-6.801-16.254-10.489-22.939-10.489-3.227 0-4.957.115-6.455.922-1.729.807-2.189 2.651-2.306 4.956-.115 4.841-.115 19.942-.115 21.786v8.184z" id="D"/><g id="Outter_Black"><path d="M76.683 1.75c41.141 0 74.5 33.36 74.5 74.5 0 41.13-33.359 74.5-74.5 74.5-41.129 0-74.49-33.37-74.49-74.5 0-41.141 33.361-74.5 74.49-74.5zm68.33 74.5c0-37.74-30.59-68.33-68.33-68.33-37.74 0-68.33 30.59-68.33 68.33s30.59 68.33 68.33 68.33c37.74 0 68.33-30.59 68.33-68.33z" id="XMLID_1_"/></g></svg>