<svg version="1.1" id="Layer_1" xmlns="http://www.w3.org/2000/svg" x="0" y="0" width="215.7" height="122" viewBox="0 0 215.7 122" xml:space="preserve"><path d="M6.4 120.1c-1.6 0-2.9-.4-3.9-1.1-1-.7-1.9-1.7-2.5-2.8l1.3-.8c.3.5.7 1 1 1.4.3.4.7.8 1.1 1.1.4.3.9.5 1.4.6.5.1 1 .2 1.7.2.6 0 1.2-.1 1.8-.4.6-.2 1-.6 1.5-1.1.4-.5.7-1.1 1-1.8s.3-1.5.3-2.4V98.8h1.6V113c0 1.2-.2 2.3-.5 3.2-.4.9-.8 1.7-1.4 2.3-.6.6-1.2 1-1.9 1.3s-1.7.3-2.5.3M26.8 120.2c-1.3 0-2.4-.2-3.5-.6-1.1-.4-2-1-2.7-1.7-.8-.8-1.4-1.7-1.8-2.8-.4-1.1-.6-2.4-.6-3.9V98.8h1.6v12.1c0 2.5.6 4.4 1.9 5.8 1.3 1.4 3 2 5.2 2 1.1 0 2-.2 2.9-.5.9-.3 1.6-.8 2.2-1.4.6-.6 1.1-1.4 1.4-2.4.3-1 .5-2.1.5-3.3V98.8h1.6v12.1c0 1.5-.2 2.8-.6 4s-1 2.1-1.8 2.9c-.8.8-1.7 1.4-2.7 1.8-1.1.4-2.3.6-3.6.6M48.5 120.1c-1.7 0-3.2-.3-4.6-.8-1.4-.6-2.7-1.4-3.9-2.5l1-1.2c.6.5 1.2 1 1.7 1.4.6.4 1.2.7 1.8 1 .6.3 1.2.4 1.9.6.7.1 1.4.2 2.2.2.8 0 1.5-.1 2.2-.3.7-.2 1.2-.5 1.7-.9s.8-.8 1.1-1.3c.3-.5.4-1.1.4-1.7v-.1c0-.6-.1-1.1-.3-1.5-.2-.4-.5-.8-.9-1.2-.5-.4-1.1-.7-1.8-1-.8-.3-1.7-.6-2.9-.8-1.3-.3-2.3-.6-3.2-.9-.9-.4-1.6-.8-2.2-1.2-.6-.5-1-1-1.2-1.6-.3-.6-.4-1.3-.4-2.1v-.2c0-.8.2-1.5.5-2.2.3-.7.8-1.3 1.4-1.8s1.3-.9 2.1-1.2c.8-.3 1.7-.4 2.7-.4 1.5 0 2.8.2 4 .6s2.2 1.1 3.3 1.9l-1 1.2c-1-.9-2-1.5-3-1.8-1-.4-2.1-.5-3.3-.5-.8 0-1.5.1-2.1.3-.6.2-1.2.5-1.6.9-.5.4-.8.8-1 1.3-.2.5-.4 1-.4 1.5v.1c0 .6.1 1.1.3 1.5.2.5.5.9.9 1.2.4.4 1.1.7 1.9 1 .8.3 1.8.6 3.1.8 2.4.5 4.2 1.2 5.3 2.1 1.1.9 1.6 2.1 1.6 3.7v.1c0 .8-.2 1.6-.5 2.3-.4.7-.8 1.3-1.4 1.8-.6.5-1.3.9-2.2 1.2-1.3.4-2.2.5-3.2.5M66.4 100.2h-7.3v-1.4h16.2v1.4H68v19.6h-1.6zM80.3 98.8h1.6v21h-1.6zM88.3 98.8h1.5l14.5 18.3V98.8h1.5v21h-1.2l-14.8-18.7v18.7h-1.5zM130.6 120.2c-1.5 0-2.9-.3-4.2-.8-1.3-.6-2.4-1.3-3.3-2.3-.9-1-1.7-2.1-2.2-3.4-.5-1.3-.8-2.7-.8-4.2v-.1c0-1.5.3-2.9.8-4.2.5-1.3 1.3-2.5 2.2-3.5.9-1 2-1.8 3.3-2.3 1.3-.6 2.7-.9 4.2-.9.9 0 1.8.1 2.6.2.8.2 1.5.4 2.1.7.7.3 1.3.7 1.8 1.1.6.4 1.1.9 1.7 1.4l-1.1 1.1c-.5-.4-.9-.9-1.4-1.2-.5-.4-1-.7-1.6-1s-1.2-.5-1.9-.6c-.7-.2-1.4-.2-2.2-.2-1.3 0-2.4.2-3.5.7-1.1.5-2 1.1-2.8 2s-1.4 1.8-1.9 3c-.5 1.1-.7 2.4-.7 3.7v.1c0 1.3.2 2.6.7 3.7.5 1.2 1.1 2.2 1.9 3 .8.9 1.7 1.5 2.8 2 1.1.5 2.3.7 3.5.7 1.5 0 2.8-.3 4-.8 1.1-.6 2.2-1.4 3.3-2.4l1.1 1c-.6.5-1.1 1-1.7 1.5-.6.5-1.2.8-1.9 1.2-.7.3-1.4.6-2.2.8-.8-.1-1.7 0-2.6 0M143.3 98.8h1.5v9.7h13.5v-9.7h1.6v21h-1.6V110h-13.5v9.8h-1.5zM166.3 98.8h1.6v21h-1.6zM183.9 120.2c-1.5 0-2.9-.3-4.2-.8-1.3-.6-2.4-1.3-3.3-2.3s-1.7-2.1-2.2-3.4c-.5-1.3-.8-2.7-.8-4.2v-.1c0-1.5.3-2.9.8-4.2.5-1.3 1.3-2.5 2.2-3.5.9-1 2-1.8 3.3-2.3 1.3-.6 2.7-.9 4.2-.9.9 0 1.8.1 2.6.2.8.2 1.5.4 2.1.7s1.3.7 1.8 1.1c.6.4 1.1.9 1.7 1.4L191 103c-.5-.4-.9-.9-1.4-1.2-.5-.4-1-.7-1.6-1-.6-.3-1.2-.5-1.9-.6-.7-.2-1.4-.2-2.2-.2-1.3 0-2.4.2-3.5.7-1.1.5-2 1.1-2.8 2s-1.4 1.8-1.9 3c-.5 1.1-.7 2.4-.7 3.7v.1c0 1.3.2 2.6.7 3.7.5 1.2 1.1 2.2 1.9 3 .8.9 1.7 1.5 2.8 2s2.3.7 3.5.7c1.5 0 2.8-.3 4-.8 1.1-.6 2.2-1.4 3.3-2.4l1.1 1c-.6.5-1.1 1-1.7 1.5-.6.5-1.2.8-1.9 1.2-.7.3-1.4.6-2.2.8-.9-.1-1.7 0-2.6 0M196.5 98.8h1.6v13.8l13.4-13.8h2.1l-9.2 9.3 9.6 11.7h-2l-8.7-10.6-5.2 5.3v5.3h-1.6z"/><path d="M49.2 57c3.2 4.5 6.2 7.2 10.7 7.2 4.6 0 7.6-3.8 7.6-9.5V3.6h5.4v37c0 2.2.1 16.4-.4 18.4-1.4 6.8-6.5 9.9-12.1 9.9-6.7 0-11-3.4-14.7-8.8l-3.6 3c4.3 6.2 9.8 10.4 18.7 10.4 6.7 0 12.2-4.5 14.5-7.9 2.8-4.4 3-17.3 3-21.6V3.6h5.4v43.8c0 6.5 0 16.5-4.6 22-4.2 5.1-10.1 8.7-17.9 8.7-11.2 0-17.9-4.9-22.7-12l-3.6 3c5.4 8 13.3 13.7 26.8 13.7 8.8 0 15.7-3.6 20.5-9 4.6-5.2 6.9-14.3 6.9-23V3.6h5.4v50.6c0 10.8-2.5 18.2-8.6 24.3-5.6 5.6-13.9 8.9-23.7 8.9-15.7 0-24.8-6.3-30.8-15.3M159.3 36.5c-3.1-5.9-7.4-10-14.9-10-9.3 0-15.4 8.1-15.4 18v.2c0 10.7 6.3 18.2 15.4 18.2 7.8 0 12.1-4.2 15.5-10.3l4.5 2.6c-4.1 7.3-9.9 12.7-20.2 12.7-11.8 0-20.8-9.4-20.8-23.1v-.2c0-12.8 8.7-23 21.1-23 9.6 0 15.6 5.1 19.4 12.3l4.5-2.7c-4.6-8.6-12.1-14.5-23.8-14.5-15.4 0-26.7 12.2-26.7 27.9v.2c0 16.6 11.7 28 26.3 28 12.8 0 20-6.5 24.9-15.1l4.5 2.6c-5.5 9.8-14.2 17.5-29.5 17.5-17.3 0-31.7-13.3-31.7-32.9v-.2c0-18.7 13.9-32.9 32.4-32.9 13.9 0 22.9 6.9 28.3 16.8l4.5-2.7c-6.2-11.2-16.8-19.1-32.8-19.1-21.5 0-38 16.3-38 37.9v.2c0 22.5 17.2 37.8 37.2 37.8 17.9 0 28-8.8 34.2-19.8l4.5 2.6c-6.9 12.2-18.4 22.2-38.9 22.2-22.8 0-42.6-17.2-42.6-42.6v-.2c0-24.6 19.1-42.9 43.7-42.9 18.1 0 30.3 8.8 37.2 21.4" fill="none" stroke="#000" stroke-width=".949"/></svg>