<svg version="1.1" id="Layer_1" xmlns="http://www.w3.org/2000/svg" x="0" y="0" viewBox="0 0 92.333 54.167" xml:space="preserve"><path fill="none" stroke="#0074D9" stroke-width="1.25" d="M11.69 34.71c1.888 2.653 3.704 4.263 6.36 4.263 2.724 0 4.54-2.236 4.54-5.662V2.917h3.187v21.99c0 1.286.042 9.76-.258 10.955-.848 4.024-3.866 5.88-7.22 5.88-3.997 0-6.526-2.04-8.748-5.228l-2.138 1.802c2.556 3.718 5.8 6.193 11.14 6.193 3.98 0 7.27-2.67 8.612-4.693 1.67-2.61 1.797-10.307 1.797-12.877V2.917h3.188v26.052c0 3.856.005 9.81-2.725 13.103-2.51 3.03-6.01 5.2-10.62 5.2-6.68 0-10.635-2.907-13.53-7.155L3.14 41.92c3.23 4.78 7.896 8.12 15.918 8.12 5.24 0 9.332-2.17 12.2-5.38 2.74-3.066 4.082-8.516 4.082-13.66V2.917h3.186v30.116c0 6.428-1.467 10.83-5.1 14.464-3.354 3.354-8.246 5.312-14.116 5.312-9.363 0-14.744-3.772-18.308-9.085M77.163 22.48c-1.816-3.493-4.403-5.938-8.874-5.938-5.522 0-9.155 4.82-9.155 10.69v.14c0 6.36 3.773 10.83 9.154 10.83 4.61 0 7.196-2.516 9.223-6.15l2.696 1.524c-2.446 4.36-5.884 7.562-12.005 7.562-7.015 0-12.396-5.62-12.396-13.738v-.14c0-7.616 5.184-13.653 12.52-13.653 5.73 0 9.252 3.004 11.53 7.294l2.697-1.578c-2.74-5.087-7.197-8.65-14.186-8.65-9.152 0-15.89 7.252-15.89 16.616v.14c0 9.882 6.99 16.645 15.64 16.645 7.63 0 11.92-3.885 14.786-8.972l2.696 1.522c-3.282 5.814-8.427 10.386-17.566 10.386-10.285 0-18.88-7.912-18.88-19.553v-.14c0-11.11 8.286-19.578 19.257-19.578 8.245 0 13.64 4.12 16.84 10.007l2.697-1.58c-3.66-6.68-9.992-11.36-19.494-11.36-12.788 0-22.627 9.684-22.627 22.54v.14c0 13.403 10.2 22.46 22.122 22.46 10.65 0 16.645-5.255 20.348-11.796L91 39.67c-4.124 7.27-10.973 13.207-23.13 13.207-13.557 0-25.366-10.203-25.366-25.365v-.14c0-14.604 11.39-25.504 25.994-25.504 10.762 0 18.028 5.24 22.15 12.717"/></svg>