<svg version="1.1" id="Layer_1" xmlns="http://www.w3.org/2000/svg" x="0" y="0" width="363.367" height="203.5" viewBox="0 0 363.367 203.5" xml:space="preserve"><path d="M172.067 31.12c-18.89-18.886-44.003-29.286-70.712-29.286-26.712 0-51.823 10.4-70.712 29.29C11.79 49.977 1.405 75.088 1.405 101.834c0 26.745 10.384 51.858 29.24 70.713 18.888 18.885 44.002 29.287 70.71 29.287 26.713 0 51.824-10.402 70.713-29.29 18.853-18.852 29.238-43.965 29.238-70.71 0-26.746-10.386-51.857-29.24-70.713m-27.11 114.312c-11.647 11.645-27.128 18.06-43.6 18.06s-31.954-6.415-43.602-18.057c-24.038-24.043-24.038-63.16 0-87.197 11.647-11.648 27.13-18.06 43.602-18.06 16.472 0 31.953 6.412 43.6 18.056 24.038 24.04 24.038 63.158 0 87.198M334.133 31.12c-18.89-18.886-44.008-29.286-70.712-29.286-19.823 0-38.756 5.753-54.924 16.426 8.008 10.24 14.44 21.47 19.166 33.404 10.376-7.428 22.74-11.486 35.76-11.486 16.468 0 31.95 6.412 43.6 18.056 24.035 24.04 24.035 63.158 0 87.198-11.648 11.645-27.132 18.06-43.6 18.06-13.02 0-25.384-4.064-35.76-11.487-4.728 11.933-11.158 23.163-19.166 33.4 16.168 10.676 35.104 16.43 54.925 16.43 26.71 0 51.824-10.402 70.713-29.29 18.852-18.852 29.234-43.965 29.234-70.71 0-26.747-10.383-51.858-29.234-70.714"/></svg>