<svg version="1.1" id="Layer_1" xmlns="http://www.w3.org/2000/svg" x="0" y="0" width="363.367" height="203.5" viewBox="0 0 363.367 203.5" xml:space="preserve"><path d="M172.067 31.121c-18.889-18.887-44.003-29.287-70.712-29.287-26.712 0-51.823 10.4-70.712 29.29C11.789 49.977 1.405 75.088 1.405 101.833c0 26.746 10.384 51.859 29.239 70.714 18.889 18.885 44.003 29.287 70.712 29.287 26.712 0 51.823-10.402 70.712-29.291 18.853-18.851 29.238-43.964 29.238-70.71 0-26.745-10.386-51.856-29.239-70.712m-27.11 114.311c-11.648 11.645-27.129 18.06-43.601 18.06-16.472 0-31.954-6.415-43.602-18.057-24.038-24.043-24.038-63.159 0-87.197 11.647-11.648 27.129-18.06 43.602-18.06 16.472 0 31.953 6.412 43.601 18.056 24.037 24.041 24.037 63.158 0 87.198M334.133 31.121c-18.889-18.887-44.008-29.287-70.712-29.287-19.824 0-38.757 5.753-54.925 16.426a134.649 134.649 0 0 1 19.166 33.404c10.376-7.428 22.739-11.486 35.759-11.486 16.469 0 31.952 6.412 43.6 18.056 24.036 24.041 24.036 63.158 0 87.198-11.647 11.645-27.131 18.06-43.6 18.06-13.02 0-25.383-4.064-35.759-11.487a134.707 134.707 0 0 1-19.166 33.401c16.168 10.675 35.104 16.429 54.925 16.429 26.71 0 51.823-10.402 70.712-29.291 18.852-18.851 29.234-43.964 29.234-70.71 0-26.746-10.383-51.857-29.234-70.713"/></svg>