<svg version="1.1" id="Layer_1" xmlns="http://www.w3.org/2000/svg" x="0" y="0" viewBox="0 0 87.125 101.208" xml:space="preserve"><path id="svg-path" fill-rule="evenodd" clip-rule="evenodd" fill="#231F20" d="M71.825 83.904l-1.05-1.57V80.66h-.835v1.674l-1.153 1.57 1.47 1.89 1.568-1.89zm.075-1.777V80.66l2.513-.01v1.163L72.74 83.17l-.84-1.043zm-3.113 0V80.66l-2.516-.01v1.163l1.677 1.357.84-1.043zm-5.637-6.074v-1.888h3.98l1.674 2.096v3.206H67.55v-2.052l-1.467-1.36L64.3 77.2l-1.15-1.15zm14.437 0v-1.888h-3.983L71.93 76.26v3.206h1.257v-2.052l1.467-1.36 1.78 1.148 1.153-1.15zm-5.762-2.1v-3.975l-1.466-1.47-1.47 1.47v3.975l1.05 2.1v3.413h.835v-3.413l1.05-2.1zm-53.008 9.95l-1.047-1.57V80.66h-.837v1.674l-1.153 1.57 1.468 1.89 1.57-1.89zm.077-1.776V80.66l2.514-.01v1.163l-1.675 1.357-.84-1.043zm-3.114 0V80.66l-2.514-.01v1.163l1.675 1.357.84-1.043zm-5.636-6.074v-1.888h3.98L15.8 76.26v3.206H14.54v-2.052l-1.466-1.36-1.78 1.148-1.152-1.15zm14.434 0v-1.888h-3.98L18.92 76.26v3.206h1.26v-2.052l1.464-1.36 1.78 1.148 1.152-1.15zm-5.76-2.1v-3.975l-1.467-1.47-1.466 1.47v3.975l1.048 2.1v3.413h.837v-3.413l1.047-2.1zm27.01 18.526l-1.44-2.157V88.02h-1.153v2.303l-1.582 2.156 2.017 2.59 2.16-2.59zm.106-2.444V88.02l3.454-.01v1.592l-2.3 1.87-1.154-1.436zm-4.28 0V88.02l-3.455-.01v1.592l2.3 1.87 1.153-1.436zm-7.745-8.348v-2.59h5.47l2.3 2.88v4.402h-1.727v-2.82l-2.014-1.872-2.45 1.584-1.58-1.584zm19.828 0v-2.59h-5.465l-2.3 2.88v4.402h1.723v-2.82l2.01-1.872 2.454 1.584 1.578-1.584zm-7.91-2.88v-5.465l-2.016-2.02-2.015 2.02v5.465l1.438 2.88v4.693h1.152v-4.69l1.442-2.882zm5.05-61.57l-5.343-.14-1.783-4.797-1.51 4.8-5.206.137 4.247 3.287-1.78 5.21 4.387-3.153 4.523 3.153-1.783-5.07 4.248-3.426zm-26.244-1.963l-4.936-.135s-2.056-5.347-2.056-5.207L16 15.14l-5.347.135 4.248 2.877-1.505 5.208 4.247-3.15 4.66 3.15-1.78-5.208 4.112-2.877zm52.873 0l-5.34-.135-1.784-5.347-1.923 5.347-5.206.135 4.388 2.877-1.507 5.208 4.248-3.15 4.523 3.15-1.512-5.208 4.113-2.877zm-10.964 47.04H47.247l-3.51 3.18-3.51-3.18H21.262v-24.89l3.18-2.412.11 23.902h16.666l2.74 2.633 2.963-2.633h16.226l.112-23.902 3.284 2.632v24.67zm-6.25-6.357H46.15l-2.413 2.413-2.194-2.412H27.4v-23.03h14.144l2.194 2.192 2.304-2.19h14.25v23.028zm-42.215-2.414c-4.603-.44-7.675-1.208-13.815-2.633V37.426c5.483 1.54 9.76 1.647 13.815 2.74v13.38zm64.917-2.74l-13.158 2.52c-.11-.988 0-13.158 0-13.158 4.383-.657 7.565-1.533 13.158-2.74v13.377zm0-26.974c-25.113 5.812-53.842 6.688-78.732 0V5.518c24.012 5.37 54.932 6.143 78.732 0V23.83zm0 51.1c-1.21 8.99-11.516 11.947-14.808 13.592-8.11 3.18-16.23 5.7-24.34 8.993C12.486 85.673 4.703 84.025 4.262 74.93c0 0-.108-9.436 0-10.096 24.67 5.483 52.413 5.922 78.732 0V74.93zm3.724-1.434V.693C59.963 7.823 29.044 7.71.646.8c0 3.4 0 54.936-.11 72.92.11 6.355-1.316 10.85 23.902 20.174 5.81 1.977 13.157 4.717 19.298 6.8 5.48-1.976 11.075-3.84 16.448-6.025 8.442-3.626 26.65-6.915 26.533-21.174z"/></svg>