<svg version="1.1" xmlns="http://www.w3.org/2000/svg" x="0" y="0" width="153.333" height="152.333" viewBox="0 0 153.333 152.333" xml:space="preserve"><path d="M140.79 76.33c0 35.65-28.9 64.55-64.55 64.55s-64.55-28.898-64.55-64.55c0-35.65 28.9-64.55 64.55-64.55s64.55 28.9 64.55 64.55" id="Inner_Black"/><path fill="#FFF" d="M49.48 61.3c0-2.997-.347-19.365-.578-21.094-.345-2.767-1.844-3.228-3.803-3.228h-5.765c-.576 0-.922-.115-.922-.807v-3.34c0-.462.346-.578.807-.578 1.498 0 6.57.346 18.097.346 2.997 0 14.524-.346 17.175-.346 15.676 0 28.125 1.384 39.074 10.49 7.61 6.34 12.91 15.907 12.91 29.278 0 13.257-3.803 22.017-11.41 30.316-11.182 12.103-30.89 12.218-38.152 12.218-1.846 0-15.447-.346-21.787-.346-10.028 0-14.64.346-16.253.346-.576 0-.807-.23-.807-1.037v-2.997c0-.462.346-.692.922-.692h5.993c2.19 0 3.458-.922 3.69-2.766.345-2.42.806-28.357.806-37.117V61.3zm17.29 11.18c0 1.5.114 21.095.23 28.242 0 2.305.46 4.148 1.96 6.34 1.382 2.074 5.3 2.766 9.22 2.766 6.687 0 15.562-3.342 21.554-11.295 4.61-6.11 8.186-15.562 8.186-26.283 0-9.452-3.918-19.134-9.336-25.128-6.11-6.8-16.254-10.49-22.94-10.49-3.226 0-4.956.116-6.454.923-1.73.807-2.19 2.65-2.306 4.956-.115 4.842-.115 19.943-.115 21.787v8.184z" id="D"/><g id="Outter_Black"><path d="M76.683 1.75c41.14 0 74.5 33.36 74.5 74.5 0 41.13-33.36 74.5-74.5 74.5-41.13 0-74.49-33.37-74.49-74.5 0-41.14 33.36-74.5 74.49-74.5zm68.33 74.5c0-37.74-30.59-68.33-68.33-68.33-37.74 0-68.33 30.59-68.33 68.33s30.59 68.33 68.33 68.33c37.74 0 68.33-30.59 68.33-68.33z" id="XMLID_1_"/></g></svg>