<svg version="1.1" id="Layer_1" xmlns="http://www.w3.org/2000/svg" x="0" y="0" viewBox="0 0 278.5 278.75" xml:space="preserve"><path d="M271.17 139.02c0 72.768-58.99 131.756-131.758 131.756S7.656 211.786 7.656 139.02c0-72.767 58.99-131.756 131.756-131.756S271.17 66.254 271.17 139.02"/><path id="C" d="M14.24 97.808h252.75v74.25H14.24z"/><path d="M139.413 276.876c-76.015 0-137.856-61.842-137.856-137.856S63.397 1.164 139.413 1.164 277.27 63.004 277.27 139.02c0 76.014-61.843 137.856-137.857 137.856m0-263.513c-69.286 0-125.657 56.37-125.657 125.656s56.37 125.655 125.657 125.655S265.07 208.307 265.07 139.02 208.7 13.363 139.413 13.363"/><path d="M76.16 150.177c-4.625 4.567-10.247 6.384-16.455 6.384-16.105 0-22.373-10.13-22.43-21.258-.06-10.542 7.027-21.727 22.43-21.727 5.914 0 11.244 2.05 15.87 6.56l-7.146 7.027c-2.93-2.81-5.974-3.572-8.726-3.572-7.907 0-11.01 6.442-10.95 11.77.057 5.33 2.868 11.363 10.95 11.363 2.752 0 6.734-1.172 9.663-4.16l6.793 7.614zM218.546 114.51v31.157h19.618v9.84H206.95V114.51z"/><path id="C" d="M114.013 183.496V78.238c0-14.69 11.54-44.648 26.23-44.648 14.69 0 26.23 30.147 26.23 44.838v105.067l-26.222 29.158-26.237-29.157z"/><path id="C_feather" d="M172.568 78.426c-.06-1.68-1.754-41.223-29.597-50.287-.145-.05-.293-.063-.44-.098-.698-.323-1.47-.512-2.288-.512-1.334 0-2.54.493-3.492 1.286-26.078 10.178-27.564 47.99-27.613 49.632-.003.056-.003.113-.003.17v104.877c0 1.355.5 2.664 1.41 3.672l24.21 26.907v27.56c0 3.03 2.457 5.49 5.488 5.49 3.032 0 5.49-2.46 5.49-5.49v-26.48c.022-.043.055-.082.076-.126l25.334-27.836c.92-1.013 1.43-2.33 1.43-3.696V78.62c0-.066-.002-.13-.004-.194M161.59 126.02l-15.858 15.057v-11.08l15.86-15.055v11.08zm0-26.218l-15.858 15.056v-11.08l15.86-15.056v11.08zm-.46-25.78L145.73 88.64V77.56l13.578-12.892c.93 3.573 1.49 6.854 1.82 9.354m-15.398 82.194l15.86-15.055v12.222l-15.86 15.057v-12.224zm9.466-102.782l-9.466 8.987V41.73c4.133 2.966 7.2 7.172 9.466 11.704M120.113 181.39V78.72c.034-.832.44-9.028 3.37-18.042 2.663-8.203 6.44-14.28 11.27-18.166V197.66l-14.64-16.27zm25.62 17.408v-15.222l15.858-15.056v12.852l-15.858 17.426z"/></svg>