<svg version="1.1" id="Layer_1" xmlns="http://www.w3.org/2000/svg" x="0" y="0" viewBox="0 0 87.125 101.208" xml:space="preserve"><path id="svg-path" fill-rule="evenodd" clip-rule="evenodd" fill="#231F20" d="M71.825 83.904l-1.05-1.57V80.66h-.835v1.674l-1.153 1.57 1.469 1.889 1.569-1.889zm.075-1.777V80.66l2.513-.01v1.163L72.74 83.17l-.84-1.043zm-3.113 0V80.66l-2.516-.01v1.163l1.676 1.357.84-1.043zm-5.637-6.074v-1.888h3.979l1.675 2.096v3.205H67.55v-2.052l-1.467-1.361-1.782 1.149-1.151-1.149zm14.437 0v-1.888h-3.983l-1.674 2.096v3.205h1.257v-2.052l1.467-1.361 1.779 1.149 1.154-1.149zm-5.762-2.1v-3.975l-1.466-1.469-1.469 1.469v3.975l1.05 2.1v3.413h.835v-3.413l1.05-2.1zm-53.008 9.951l-1.047-1.57V80.66h-.837v1.674l-1.153 1.57 1.468 1.889 1.569-1.889zm.077-1.777V80.66l2.514-.01v1.163l-1.675 1.357-.839-1.043zm-3.114 0V80.66l-2.514-.01v1.163l1.675 1.357.839-1.043zm-5.636-6.074v-1.888h3.98l1.675 2.096v3.205h-1.257v-2.052l-1.466-1.361-1.781 1.149-1.151-1.149zm14.434 0v-1.888h-3.981l-1.675 2.096v3.205h1.259v-2.052l1.465-1.361 1.781 1.149 1.151-1.149zm-5.761-2.1v-3.975l-1.466-1.469-1.467 1.469v3.975l1.048 2.1v3.413h.837v-3.413l1.048-2.1zm27.012 18.526l-1.442-2.156V88.02h-1.152v2.303l-1.582 2.156 2.017 2.592 2.159-2.592zm.105-2.443V88.02l3.454-.01v1.592l-2.299 1.87-1.155-1.436zm-4.281 0V88.02l-3.454-.01v1.592l2.301 1.87 1.153-1.436zm-7.744-8.348v-2.591h5.47l2.301 2.881v4.402h-1.727v-2.82l-2.014-1.872-2.448 1.584-1.582-1.584zm19.829 0v-2.591h-5.465l-2.299 2.881v4.402h1.722v-2.82l2.011-1.872 2.453 1.584 1.578-1.584zm-7.909-2.88v-5.465l-2.017-2.02-2.015 2.02v5.465l1.438 2.881v4.692h1.152v-4.692l1.442-2.881zm5.049-61.571l-5.343-.138-1.783-4.798-1.509 4.798-5.207.138 4.247 3.287-1.781 5.209 4.388-3.152 4.523 3.152-1.783-5.069 4.248-3.427zm-26.244-1.962l-4.936-.135s-2.056-5.347-2.056-5.207L16 15.14l-5.347.135 4.248 2.877-1.506 5.208 4.247-3.151 4.66 3.151-1.781-5.208 4.113-2.877zm52.873 0l-5.341-.135-1.783-5.347-1.923 5.347-5.206.135 4.388 2.877-1.507 5.208 4.248-3.151 4.523 3.151-1.512-5.208 4.113-2.877zM66.543 62.316H47.247l-3.509 3.178-3.51-3.178H21.261V37.425l3.178-2.412.11 23.902h16.667l2.74 2.633 2.963-2.633h16.227l.112-23.902 3.284 2.632v24.671h.001zm-6.25-6.358H46.149l-2.412 2.413-2.194-2.413H27.4V32.929h14.144l2.194 2.191 2.304-2.191h14.251v23.029zm-42.215-2.414c-4.603-.44-7.675-1.208-13.815-2.633V37.425c5.483 1.539 9.76 1.647 13.815 2.741v13.378zm64.917-2.741l-13.158 2.521c-.111-.988 0-13.158 0-13.158 4.383-.657 7.565-1.533 13.158-2.741v13.378zm0-26.973c-25.113 5.812-53.842 6.688-78.732 0V5.518c24.012 5.371 54.932 6.143 78.732 0V23.83zm0 51.101c-1.209 8.99-11.516 11.946-14.808 13.591-8.11 3.181-16.229 5.701-24.341 8.993C12.487 85.673 4.704 84.025 4.263 74.931c0 0-.108-9.437 0-10.097 24.671 5.483 52.413 5.922 78.732 0v10.097zm3.724-1.435V.693C59.964 7.822 29.045 7.709.647.801c0 3.399 0 54.935-.11 72.92.11 6.354-1.316 10.849 23.902 20.173 5.812 1.977 13.158 4.717 19.299 6.8 5.481-1.976 11.075-3.839 16.448-6.025 8.442-3.625 26.649-6.914 26.533-21.173z"/></svg>