<svg version="1.1" id="Layer_1" xmlns="http://www.w3.org/2000/svg" x="0" y="0" viewBox="0 0 92.333 54.167" xml:space="preserve"><path fill="none" stroke="#292929" stroke-width="1.25" d="M11.691 34.71c1.887 2.653 3.703 4.263 6.358 4.263 2.725 0 4.542-2.236 4.542-5.662V2.916h3.186v21.989c0 1.287.042 9.761-.258 10.956-.847 4.023-3.865 5.878-7.218 5.878-3.998 0-6.527-2.04-8.749-5.227l-2.138 1.802c2.556 3.718 5.799 6.193 11.139 6.193 3.982 0 7.272-2.67 8.613-4.693 1.67-2.611 1.797-10.307 1.797-12.877V2.916h3.188v26.053c0 3.857.004 9.81-2.726 13.104-2.511 3.03-6.01 5.199-10.621 5.199-6.68 0-10.634-2.906-13.528-7.154L3.138 41.92c3.229 4.779 7.896 8.12 15.918 8.12 5.241 0 9.332-2.17 12.201-5.381 2.738-3.065 4.081-8.515 4.081-13.658V2.916h3.186v30.116c0 6.428-1.467 10.831-5.1 14.464-3.354 3.354-8.246 5.312-14.116 5.312-9.363 0-14.744-3.772-18.308-9.085M77.163 22.481c-1.816-3.494-4.403-5.939-8.874-5.939-5.521 0-9.154 4.82-9.154 10.689v.141c0 6.359 3.773 10.83 9.154 10.83 4.61 0 7.197-2.516 9.224-6.149l2.696 1.523c-2.445 4.36-5.883 7.562-12.004 7.562-7.015 0-12.396-5.619-12.396-13.738v-.14c0-7.616 5.185-13.653 12.522-13.653 5.729 0 9.251 3.004 11.529 7.294l2.697-1.579c-2.739-5.087-7.197-8.651-14.186-8.651-9.153 0-15.89 7.253-15.89 16.617v.14c0 9.882 6.988 16.645 15.638 16.645 7.631 0 11.922-3.885 14.787-8.972l2.696 1.521c-3.282 5.814-8.427 10.386-17.566 10.386-10.285 0-18.881-7.912-18.881-19.553v-.139c0-11.111 8.287-19.579 19.258-19.579 8.245 0 13.641 4.121 16.841 10.007l2.696-1.58c-3.66-6.68-9.992-11.361-19.494-11.361-12.788 0-22.627 9.685-22.627 22.541v.14c0 13.403 10.201 22.46 22.123 22.46 10.649 0 16.645-5.255 20.348-11.796l2.7 1.523c-4.124 7.268-10.973 13.206-23.131 13.206-13.556 0-25.365-10.203-25.365-25.365v-.139c0-14.605 11.39-25.505 25.994-25.505 10.762 0 18.028 5.24 22.151 12.717"/></svg>