<svg version="1.1" id="Layer_1" xmlns="http://www.w3.org/2000/svg" x="0" y="0" viewBox="0 0 278.5 278.75" xml:space="preserve"><path d="M271.169 139.02c0 72.768-58.99 131.756-131.757 131.756S7.656 211.787 7.656 139.02 66.646 7.264 139.412 7.264 271.169 66.253 271.169 139.02"/><path id="C" d="M14.239 97.808h252.752v74.25H14.239z"/><path d="M139.413 276.876c-76.015 0-137.856-61.842-137.856-137.856S63.398 1.164 139.413 1.164 277.269 63.005 277.269 139.02c0 76.014-61.842 137.856-137.856 137.856m0-263.513c-69.286 0-125.657 56.37-125.657 125.656 0 69.287 56.371 125.656 125.657 125.656S265.07 208.307 265.07 139.02 208.699 13.363 139.413 13.363"/><path d="M76.16 150.177c-4.625 4.567-10.247 6.384-16.455 6.384-16.105 0-22.373-10.132-22.431-21.259-.059-10.542 7.028-21.727 22.431-21.727 5.914 0 11.244 2.049 15.87 6.559l-7.146 7.028c-2.928-2.811-5.973-3.572-8.725-3.572-7.907 0-11.011 6.442-10.951 11.77.058 5.33 2.869 11.363 10.951 11.363 2.752 0 6.734-1.172 9.663-4.159l6.793 7.613zM218.546 114.511v31.156h19.618v9.84h-31.213v-40.996z"/><path id="C" d="M114.013 183.496V78.238c0-14.69 11.539-44.648 26.229-44.648 14.691 0 26.23 30.147 26.23 44.838v105.067l-26.221 29.158-26.238-29.157z"/><path id="C_feather" d="M172.568 78.426c-.059-1.679-1.754-41.223-29.597-50.287-.146-.048-.294-.062-.441-.097a5.426 5.426 0 0 0-2.288-.512c-1.334 0-2.541.493-3.492 1.286-26.078 10.178-27.564 47.991-27.613 49.632-.003.056-.003.113-.003.17v104.877c0 1.355.501 2.664 1.409 3.672l24.21 26.907v27.56a5.49 5.49 0 0 0 10.979 0v-26.479c.022-.044.055-.083.076-.127l25.334-27.836a5.497 5.497 0 0 0 1.43-3.696V78.619c0-.065-.002-.128-.004-.193m-10.977 47.595l-15.859 15.056v-11.08l15.859-15.055v11.079zm0-26.219l-15.859 15.056v-11.079l15.859-15.057v11.08zm-.462-25.78l-15.397 14.617v-11.08l13.578-12.891a78.003 78.003 0 0 1 1.819 9.354m-15.397 82.194l15.859-15.055v12.221l-15.859 15.057v-12.223zm9.466-102.782l-9.466 8.987V41.729c4.133 2.967 7.201 7.173 9.466 11.705M120.113 181.39V78.721c.034-.833.441-9.029 3.37-18.043 2.663-8.203 6.44-14.28 11.27-18.166V197.66l-14.64-16.27zm25.619 17.408v-15.222l15.859-15.056v12.852l-15.859 17.426z"/></svg>