<?xml version="1.0" encoding="iso-8859-1"?>
<!-- Generator: Adobe Illustrator 16.0.0, SVG Export Plug-In . SVG Version: 6.00 Build 0)  -->
<!DOCTYPE svg PUBLIC "-//W3C//DTD SVG 1.1//EN" "http://www.w3.org/Graphics/SVG/1.1/DTD/svg11.dtd">
<svg version="1.1" id="Capa_1" xmlns="http://www.w3.org/2000/svg" xmlns:xlink="http://www.w3.org/1999/xlink" x="0px" y="0px"
	 width="70.667px" height="70.667px" viewBox="0 0 70.667 70.667" style="enable-background:new 0 0 70.667 70.667;"
	 xml:space="preserve">
<g>
	<g>
		<path d="M67.667,38.553h-1.5V9.733c0-1.653-1.347-3-3-3H3c-1.654,0-3,1.347-3,3v41.916c0,1.652,1.346,3,3,3h21.517
			c-0.112,0.312-0.184,0.646-0.184,1v5.285c0,1.652,1.346,3,3,3h14.334c1.653,0,3-1.348,3-3v-5.285c0-0.354-0.071-0.688-0.187-1
			h8.853v6.285c0,1.652,1.347,3,3,3h11.334c1.653,0,3-1.348,3-3V41.553C70.667,39.898,69.32,38.553,67.667,38.553z M3,8.732h60.167
			c0.551,0,1,0.448,1,1v28.819h-7.834c-1.653,0-3,1.347-3,3v3.882H2V9.732C2,9.182,2.448,8.732,3,8.732z M41.667,61.936H27.333
			c-0.552,0-1-0.449-1-1h16.334C42.667,61.486,42.218,61.936,41.667,61.936z M42.667,55.648v3.285H26.333v-3.285
			c0-0.551,0.448-1,1-1h14.334C42.218,54.648,42.667,55.098,42.667,55.648z M41.667,52.648H27.333H3c-0.552,0-1-0.446-1-1v-4.215
			h51.333v5.215H41.667z M68.667,60.936c0,0.551-0.449,1-1,1H56.333c-0.554,0-1-0.449-1-1v-7.285V41.553c0-0.553,0.446-1,1-1h8.834
			h2.5c0.551,0,1,0.447,1,1V60.936z"/>
	</g>
</g>
<g>
</g>
<g>
</g>
<g>
</g>
<g>
</g>
<g>
</g>
<g>
</g>
<g>
</g>
<g>
</g>
<g>
</g>
<g>
</g>
<g>
</g>
<g>
</g>
<g>
</g>
<g>
</g>
<g>
</g>
</svg>
