<?xml version="1.0" encoding="utf-8"?>
<!-- Generator: Adobe Illustrator 16.0.0, SVG Export Plug-In . SVG Version: 6.00 Build 0)  -->
<!DOCTYPE svg PUBLIC "-//W3C//DTD SVG 1.1//EN" "http://www.w3.org/Graphics/SVG/1.1/DTD/svg11.dtd">
<svg version="1.1" id="Layer_1" xmlns="http://www.w3.org/2000/svg" xmlns:xlink="http://www.w3.org/1999/xlink" x="0px" y="0px"
	 width="469.7px" height="317.2px" viewBox="0 0 469.7 317.2" style="enable-background:new 0 0 469.7 317.2;" xml:space="preserve"
	>
<g>
	<path style="fill:#262626;" d="M3.2,317.2c-1.7,0-3.2-1.4-3.2-3.2V3.2C0,1.4,1.4,0,3.2,0h463.4c1.7,0,3.2,1.4,3.2,3.2v310.9
		c0,1.7-1.4,3.2-3.2,3.2H3.2z M420.7,301.7c1.7,0,3.2-1.4,3.2-3.2V18.7c0-1.7-1.4-3.2-3.2-3.2l-371.6,0c-1.7,0-3.2,1.4-3.2,3.2
		v279.8c0,1.7,1.4,3.2,3.2,3.2H420.7z"/>
	<path style="fill:none;stroke:#404041;stroke-width:0.2491;stroke-miterlimit:10;" d="M3.2,317.2c-1.7,0-3.2-1.4-3.2-3.2V3.2
		C0,1.4,1.4,0,3.2,0h463.4c1.7,0,3.2,1.4,3.2,3.2v310.9c0,1.7-1.4,3.2-3.2,3.2H3.2z M420.7,301.7c1.7,0,3.2-1.4,3.2-3.2V18.7
		c0-1.7-1.4-3.2-3.2-3.2l-371.6,0c-1.7,0-3.2,1.4-3.2,3.2v279.8c0,1.7,1.4,3.2,3.2,3.2H420.7z"/>
</g>
<path style="fill:#929497;" d="M446,161.8c1.8,0,3.3-1.4,3.3-3.1c0-1.7-1.5-3.1-3.3-3.1c-1.8,0-3.3,1.4-3.3,3.1
	C442.7,160.4,444.1,161.8,446,161.8z"/>
<path style="fill:#404041;" d="M21.6,170.7c6.6,0,12-5.4,12-12c0-6.7-5.4-12-12-12c-6.7,0-12,5.4-12,12
	C9.6,165.3,15,170.7,21.6,170.7z"/>
</svg>
