<?xml version="1.0" encoding="utf-8"?>
<!-- Generator: Adobe Illustrator 16.0.0, SVG Export Plug-In . SVG Version: 6.00 Build 0)  -->
<!DOCTYPE svg PUBLIC "-//W3C//DTD SVG 1.1//EN" "http://www.w3.org/Graphics/SVG/1.1/DTD/svg11.dtd">
<svg version="1.1" xmlns="http://www.w3.org/2000/svg" xmlns:xlink="http://www.w3.org/1999/xlink" x="0px" y="0px" width="470px"
	 height="333px" viewBox="0 0 470 333" style="enable-background:new 0 0 470 333;" xml:space="preserve">
<g id="Layer_2" style="display:none;">
	<rect x="-31.3" y="-17" style="display:inline;fill:#FFF13E;"/>
</g>
<g id="Layer_1">
	<path style="fill:#BFBFBF;" d="M0,22.6v290.2C0,323.9,9.1,333,20.2,333h429.6c11.1,0,20.2-9.1,20.2-20.2V22.6
		c0-11.1-9.1-20.2-20.2-20.2H20.2C9.1,2.4,0,11.5,0,22.6z M447.6,4.1c11,0,20,9,20,20v287.2c0,11-9,20-20,20H22.4c-11,0-20-9-20-20
		V24.1c0-11,9-20,20-20H447.6z"/>
	<path style="fill:#FFFFFF;" d="M2.4,24.1v287.2c0,11,9,20,20,20h425.1c11,0,20-9,20-20V24.1c0-11-9-20-20-20H22.4
		C11.4,4.1,2.4,13.1,2.4,24.1z M17.1,166.6c0-1.7,1.4-3,3.1-3c1.7,0,3,1.4,3,3.1s-1.4,3-3.1,3C18.4,169.7,17,168.3,17.1,166.6z
		 M457.9,166.9c-0.1,6.4-5.5,11.5-11.9,11.4c-6.4-0.1-11.5-5.5-11.4-11.9c0.1-6.4,5.5-11.5,11.9-11.4
		C453,155.2,458,160.5,457.9,166.9z M425.8,22.2v291h-388v-291H425.8z"/>
	<rect x="37.7" y="22.2" style="display:none;fill:#0C0C0C;" width="388" height="291"/>
	<circle style="fill:#0C0C0C;" cx="20.1" cy="166.6" r="3.1"/>
	<path style="fill:#BFBFBF;" d="M434.7,166.4c-0.1,6.4,4.9,11.7,11.4,11.9c6.4,0.1,11.7-4.9,11.9-11.4c0.1-6.4-4.9-11.7-11.4-11.9
		C440.1,154.9,434.8,160,434.7,166.4z M455.8,166.9c-0.1,5.2-4.5,9.4-9.7,9.3c-5.2-0.1-9.4-4.4-9.3-9.7c0.1-5.2,4.5-9.4,9.7-9.3
		C451.7,157.3,455.9,161.6,455.8,166.9z"/>
	<circle style="fill:#FFFFFF;" cx="446.3" cy="166.7" r="9.5"/>
</g>
</svg>
