<?xml version="1.0" encoding="utf-8"?>
<!-- Generator: Adobe Illustrator 16.0.0, SVG Export Plug-In . SVG Version: 6.00 Build 0)  -->
<!DOCTYPE svg PUBLIC "-//W3C//DTD SVG 1.1//EN" "http://www.w3.org/Graphics/SVG/1.1/DTD/svg11.dtd">
<svg version="1.1" id="Capa_1" xmlns="http://www.w3.org/2000/svg" xmlns:xlink="http://www.w3.org/1999/xlink" x="0px" y="0px"
	 viewBox="842.5 0 313.333 700" enable-background="new 842.5 0 313.333 700"
	 xml:space="preserve">
<g>
	<path d="M1145.787,514.735V188.422l-27.561-61.43c-2.109-4.719-6.631-7.65-11.803-7.65s-9.695,2.932-11.797,7.641l-15.618,34.809
		c-3.901-57.874-27.052-112.746-66.186-156.092c-3.271-3.625-7.943-5.703-12.825-5.702c-4.881,0-9.555,2.079-12.82,5.7
		c-39.135,43.344-62.285,98.216-66.186,156.092l-15.614-34.801c-2.11-4.719-6.632-7.649-11.804-7.649
		c-5.17,0-9.691,2.932-11.797,7.642l-27.566,61.438v326.309c-5.816,9.108-8.965,19.735-8.965,30.695v27.333
		c0,3.096,2.258,5.727,5.318,6.197l3.646,0.561v38.63l-6.376,55.314c-0.205,1.776,0.359,3.557,1.549,4.89
		c1.19,1.336,2.893,2.1,4.682,2.1h12.865l-0.794,12.895c-0.104,1.728,0.507,3.423,1.691,4.682c1.186,1.259,2.84,1.975,4.569,1.975
		h42.359c1.73,0,3.383-0.715,4.568-1.975c1.185-1.261,1.797-2.956,1.691-4.682l-0.793-12.895h12.868c1.789,0,3.491-0.764,4.682-2.1
		c1.189-1.334,1.754-3.113,1.549-4.89l-6.38-55.347V591.62l13.152,2.022v59.303c0,3.463,2.808,6.271,6.271,6.271h35.814
		c3.463,0,6.271-2.808,6.271-6.271v-32.839h11.1v32.839c0,3.463,2.808,6.271,6.271,6.271h35.813c3.463,0,6.271-2.808,6.271-6.271
		l-0.005-59.303l13.163-2.023v26.504l-6.378,55.335c-0.205,1.776,0.359,3.558,1.547,4.89c1.192,1.336,2.895,2.1,4.682,2.1h12.867
		l-0.794,12.895c-0.106,1.728,0.505,3.423,1.69,4.682s2.839,1.975,4.568,1.975h42.361c1.73,0,3.383-0.715,4.568-1.975
		c1.186-1.261,1.797-2.955,1.689-4.682l-0.793-12.895h12.867c1.788,0,3.491-0.764,4.681-2.1c1.19-1.334,1.753-3.113,1.548-4.89
		l-6.378-55.335v-38.609l3.648-0.561c3.061-0.471,5.319-3.103,5.319-6.197v-27.333
		C1154.755,534.479,1151.605,523.854,1145.787,514.735z M1053.9,580.956v-29.259h88.312v15.681L1053.9,580.956z M920.396,196.035
		v234.074c-7.779,14.47-17.237,28.109-28.272,40.617l-25.371,28.743V196.035H920.396z M868.945,515.939l32.581-36.914
		c19.871-22.519,34.914-48.504,44.563-76.396v136.524h-87.855C859.449,530.568,863.143,522.494,868.945,515.939z M972.149,235.776
		h55.691c8.772,30.373,13.302,61.704,13.494,93.508h-82.68C958.847,297.48,963.378,266.147,972.149,235.776z M976.013,223.234
		c1.603-4.851,3.311-9.676,5.134-14.472c3.643-9.583,12.124-13,18.848-13c6.723,0,15.206,3.415,18.848,13
		c1.822,4.796,3.531,9.622,5.135,14.472H976.013z M958.632,341.825h82.727v203.497h-82.727V341.825z M1053.9,539.153v-136.51
		c9.649,27.887,24.691,53.866,44.561,76.383l32.598,36.915c5.796,6.563,9.489,14.638,10.707,23.214H1053.9V539.153z
		 M1079.602,196.035h53.644v303.437l-25.382-28.745c-11.031-12.5-20.484-26.132-28.261-40.594L1079.602,196.035L1079.602,196.035z
		 M1106.072,132.109c0.054-0.121,0.1-0.226,0.352-0.226c0.253,0,0.297,0.104,0.355,0.233l23.052,51.376h-46.813L1106.072,132.109z
		 M996.487,14.102c1.815-2.011,5.204-2.015,7.025,0.003c31.909,35.343,52.65,78.742,60.271,125.089H936.215
		C943.834,92.846,964.575,49.449,996.487,14.102z M932.938,179.31c0-9.261,0.525-18.463,1.548-27.574h130.988v-0.375
		c1.049,9.232,1.587,18.561,1.587,27.948v222.893c-8.632-23.564-13.163-48.641-13.163-74.172h-0.033
		c-0.394-42.42-8.212-84.03-23.295-123.726c-4.868-12.811-16.869-21.086-30.573-21.086s-25.703,8.276-30.571,21.086
		c-15.084,39.696-22.902,81.306-23.296,123.726h-0.037c0,25.518-4.526,50.583-13.152,74.137V179.31H932.938z M893.222,132.109
		c0.055-0.121,0.101-0.226,0.352-0.226s0.301,0.109,0.355,0.233l23.05,51.376h-46.812L893.222,132.109z M908.084,687.458h-29.021
		l0.431-7.01h28.157L908.084,687.458z M861.1,667.906l4.97-43.118h55.013l4.971,43.118H861.1z M920.396,612.2h-53.644v-30.756
		l53.644,8.249V612.2z M857.787,567.376v-15.681h88.301v29.261L857.787,567.376z M981.902,646.676h-23.271V606.78
		c0-14.14,9.984-25.988,23.271-28.873V646.676z M1005.545,570.967v36.6h-11.101v-36.6c0-3.464-2.808-6.271-6.271-6.271
		c-11.503,0-21.938,4.643-29.543,12.148v-18.979h82.727v18.979c-7.604-7.505-18.041-12.148-29.543-12.148
		C1008.353,564.695,1005.545,567.503,1005.545,570.967z M1018.087,646.676v-68.769c13.255,2.877,23.217,14.677,23.267,28.769
		l0.005,40H1018.087z M1120.934,687.458h-29.022l0.431-7.01h28.16L1120.934,687.458z M1073.946,667.906l4.97-43.118h55.015
		l4.97,43.118H1073.946z M1133.245,612.2h-53.644v-22.508l53.644-8.248V612.2z"/>
	<path d="M980.506,300.58c0-8.776,7.14-15.916,15.916-15.916v-12.542c-15.692,0-28.458,12.768-28.458,28.458H980.506z"/>
	<path d="M1019.485,300.58h12.542c0-15.692-12.768-28.458-28.458-28.458v12.542C1012.344,284.663,1019.485,291.804,1019.485,300.58z
		"/>
</g>
</svg>
