<?xml version="1.0" encoding="utf-8"?>
<!-- Generator: Adobe Illustrator 16.0.0, SVG Export Plug-In . SVG Version: 6.00 Build 0)  -->
<!DOCTYPE svg PUBLIC "-//W3C//DTD SVG 1.1//EN" "http://www.w3.org/Graphics/SVG/1.1/DTD/svg11.dtd">
<svg version="1.1" id="Layer_1" xmlns="http://www.w3.org/2000/svg" xmlns:xlink="http://www.w3.org/1999/xlink" x="0px" y="0px"
	 width="278.5px" height="278.75px" viewBox="0 0 278.5 278.75" enable-background="new 0 0 278.5 278.75" xml:space="preserve">
<path d="M271.169,139.02c0,72.768-58.99,131.756-131.757,131.756S7.656,211.787,7.656,139.02
	c0-72.767,58.99-131.756,131.756-131.756S271.169,66.253,271.169,139.02"/>
<rect x="14.239" y="97.808" fill="#FFFFFF" width="252.752" height="74.25"/>
<path d="M139.413,276.876c-76.015,0-137.856-61.842-137.856-137.856c0-76.014,61.841-137.856,137.856-137.856
	S277.269,63.005,277.269,139.02C277.269,215.034,215.427,276.876,139.413,276.876 M139.413,13.363
	c-69.286,0-125.657,56.37-125.657,125.656c0,69.287,56.371,125.656,125.657,125.656S265.07,208.307,265.07,139.02
	C265.07,69.733,208.699,13.363,139.413,13.363"/>
<path fill="#231F20" d="M76.16,150.177c-4.625,4.567-10.247,6.384-16.455,6.384c-16.105,0-22.373-10.132-22.431-21.259
	c-0.059-10.542,7.028-21.727,22.431-21.727c5.914,0,11.244,2.049,15.87,6.559l-7.146,7.028c-2.928-2.811-5.973-3.572-8.725-3.572
	c-7.907,0-11.011,6.442-10.951,11.77c0.058,5.33,2.869,11.363,10.951,11.363c2.752,0,6.734-1.172,9.663-4.159L76.16,150.177z"/>
<polygon fill="#231F20" points="218.546,114.511 218.546,145.667 238.164,145.667 238.164,155.507 206.951,155.507 206.951,114.511 
	"/>
<path fill="#FFFFFF" d="M114.013,183.496V78.238c0-14.69,11.539-44.648,26.229-44.648c14.691,0,26.23,30.147,26.23,44.838v105.067
	l-26.221,29.158L114.013,183.496z"/>
<path stroke="#FFFFFF" stroke-width="2" stroke-miterlimit="10" d="M172.568,78.426c-0.059-1.679-1.754-41.223-29.597-50.287
	c-0.146-0.048-0.294-0.062-0.441-0.097c-0.698-0.323-1.469-0.512-2.288-0.512c-1.334,0-2.541,0.493-3.492,1.286
	c-26.078,10.178-27.564,47.991-27.613,49.632c-0.003,0.056-0.003,0.113-0.003,0.17v104.877c0,1.355,0.501,2.664,1.409,3.672
	l24.21,26.907v27.56c0,3.031,2.458,5.49,5.489,5.49c3.032,0,5.49-2.459,5.49-5.49v-26.479c0.022-0.044,0.055-0.083,0.076-0.127
	l25.334-27.836c0.92-1.013,1.43-2.33,1.43-3.696V78.619C172.572,78.554,172.57,78.491,172.568,78.426 M161.591,126.021
	l-15.859,15.056v-11.08l15.859-15.055V126.021z M161.591,99.802l-15.859,15.056v-11.079l15.859-15.057V99.802z M161.129,74.022
	l-15.397,14.617v-11.08l13.578-12.891C160.24,68.241,160.8,71.522,161.129,74.022 M145.732,156.216l15.859-15.055v12.221
	l-15.859,15.057V156.216z M155.198,53.434l-9.466,8.987V41.729C149.865,44.696,152.933,48.902,155.198,53.434 M120.113,181.39
	V78.721c0.034-0.833,0.441-9.029,3.37-18.043c2.663-8.203,6.44-14.28,11.27-18.166v155.148L120.113,181.39z M145.732,198.798
	v-15.222l15.859-15.056v12.852L145.732,198.798z"/>
</svg>
