<?xml version="1.0" encoding="utf-8"?>
<!-- Generator: Adobe Illustrator 16.0.0, SVG Export Plug-In . SVG Version: 6.00 Build 0)  -->
<!DOCTYPE svg PUBLIC "-//W3C//DTD SVG 1.1//EN" "http://www.w3.org/Graphics/SVG/1.1/DTD/svg11.dtd">
<svg version="1.1" id="Layer_1" xmlns="http://www.w3.org/2000/svg" xmlns:xlink="http://www.w3.org/1999/xlink" x="0px" y="0px"
	 width="153.667px" height="89.167px" viewBox="30.017 0 153.667 89.167" enable-background="new 30.017 0 153.667 89.167"
	 xml:space="preserve">
<g>
	<path fill="none" stroke="#000000" stroke-width="0.949" d="M49.2,57c3.2,4.5,6.2,7.2,10.7,7.2c4.6,0,7.6-3.8,7.6-9.5V3.6h5.4v37
		c0,2.2,0.1,16.4-0.4,18.4c-1.4,6.8-6.5,9.9-12.1,9.9c-6.7,0-11-3.4-14.7-8.8l-3.6,3c4.3,6.2,9.8,10.4,18.7,10.4
		c6.7,0,12.2-4.5,14.5-7.9c2.8-4.399,3-17.3,3-21.6V3.6h5.4v43.8c0,6.5,0,16.5-4.6,22C74.9,74.5,69,78.1,61.2,78.1
		c-11.2,0-17.9-4.899-22.7-12l-3.6,3c5.4,8,13.3,13.7,26.8,13.7c8.8,0,15.7-3.6,20.5-9c4.6-5.2,6.9-14.3,6.9-23V3.6h5.4v50.6
		c0,10.8-2.5,18.2-8.6,24.3c-5.6,5.6-13.9,8.9-23.7,8.9C46.5,87.4,37.4,81.1,31.4,72.1"/>
	<path fill="none" stroke="#000000" stroke-width="0.949" d="M159.299,36.5c-3.1-5.9-7.399-10-14.899-10
		c-9.3,0-15.399,8.1-15.399,18v0.2c0,10.7,6.299,18.2,15.399,18.2c7.8,0,12.101-4.2,15.5-10.3l4.5,2.6
		c-4.101,7.3-9.899,12.7-20.2,12.7c-11.8,0-20.8-9.4-20.8-23.101v-0.2c0-12.8,8.7-23,21.101-23c9.6,0,15.6,5.1,19.399,12.3l4.5-2.7
		c-4.601-8.6-12.101-14.5-23.8-14.5c-15.4,0-26.7,12.2-26.7,27.9v0.2c0,16.6,11.7,28,26.3,28c12.801,0,20-6.5,24.9-15.1l4.5,2.6
		c-5.5,9.8-14.2,17.5-29.5,17.5c-17.301,0-31.7-13.3-31.7-32.9v-0.2c0-18.7,13.899-32.9,32.399-32.9c13.9,0,22.9,6.9,28.301,16.8
		l4.5-2.7c-6.2-11.2-16.801-19.1-32.801-19.1c-21.5,0-38,16.3-38,37.9v0.2C106.8,67.4,124,82.7,144,82.7
		c17.899,0,28-8.8,34.199-19.8l4.5,2.6c-6.9,12.2-18.4,22.2-38.9,22.2C121,87.7,101.2,70.5,101.2,45.1v-0.2
		c0-24.6,19.099-42.9,43.7-42.9c18.101,0,30.3,8.8,37.2,21.4"/>
</g>
</svg>
