<?xml version="1.0" encoding="utf-8"?>
<!-- Generator: Adobe Illustrator 16.0.0, SVG Export Plug-In . SVG Version: 6.00 Build 0)  -->
<!DOCTYPE svg PUBLIC "-//W3C//DTD SVG 1.1//EN" "http://www.w3.org/Graphics/SVG/1.1/DTD/svg11.dtd">
<svg version="1.1" id="Layer_1" xmlns="http://www.w3.org/2000/svg" xmlns:xlink="http://www.w3.org/1999/xlink" x="0px" y="0px"
	 width="215.7px" height="122px" viewBox="0 0 215.7 122" style="enable-background:new 0 0 215.7 122;" xml:space="preserve">
<g>
	<path d="M6.4,120.1c-1.6,0-2.9-0.4-3.9-1.1c-1-0.7-1.9-1.7-2.5-2.8l1.3-0.8c0.3,0.5,0.7,1,1,1.4c0.3,0.4,0.7,0.8,1.1,1.1
		c0.4,0.3,0.9,0.5,1.4,0.6c0.5,0.1,1,0.2,1.7,0.2c0.6,0,1.2-0.1,1.8-0.4c0.6-0.2,1-0.6,1.5-1.1c0.4-0.5,0.7-1.1,1-1.8
		s0.3-1.5,0.3-2.4V98.8h1.6V113c0,1.2-0.2,2.3-0.5,3.2c-0.4,0.9-0.8,1.7-1.4,2.3c-0.6,0.6-1.2,1-1.9,1.3S7.2,120.1,6.4,120.1"/>
	<path d="M26.8,120.2c-1.3,0-2.4-0.2-3.5-0.6c-1.1-0.4-2-1-2.7-1.7c-0.8-0.8-1.4-1.7-1.8-2.8c-0.4-1.1-0.6-2.4-0.6-3.9V98.8h1.6
		v12.1c0,2.5,0.6,4.4,1.9,5.8c1.3,1.4,3,2,5.2,2c1.1,0,2-0.2,2.9-0.5c0.9-0.3,1.6-0.8,2.2-1.4c0.6-0.6,1.1-1.4,1.4-2.4
		c0.3-1,0.5-2.1,0.5-3.3V98.8h1.6v12.1c0,1.5-0.2,2.8-0.6,4s-1,2.1-1.8,2.9c-0.8,0.8-1.7,1.4-2.7,1.8
		C29.3,120,28.1,120.2,26.8,120.2"/>
	<path d="M48.5,120.1c-1.7,0-3.2-0.3-4.6-0.8c-1.4-0.6-2.7-1.4-3.9-2.5l1-1.2c0.6,0.5,1.2,1,1.7,1.4c0.6,0.4,1.2,0.7,1.8,1
		c0.6,0.3,1.2,0.4,1.9,0.6c0.7,0.1,1.4,0.2,2.2,0.2c0.8,0,1.5-0.1,2.2-0.3c0.7-0.2,1.2-0.5,1.7-0.9c0.5-0.4,0.8-0.8,1.1-1.3
		c0.3-0.5,0.4-1.1,0.4-1.7v-0.1c0-0.6-0.1-1.1-0.3-1.5c-0.2-0.4-0.5-0.8-0.9-1.2c-0.5-0.4-1.1-0.7-1.8-1c-0.8-0.3-1.7-0.6-2.9-0.8
		c-1.3-0.3-2.3-0.6-3.2-0.9c-0.9-0.4-1.6-0.8-2.2-1.2c-0.6-0.5-1-1-1.2-1.6c-0.3-0.6-0.4-1.3-0.4-2.1V104c0-0.8,0.2-1.5,0.5-2.2
		c0.3-0.7,0.8-1.3,1.4-1.8s1.3-0.9,2.1-1.2c0.8-0.3,1.7-0.4,2.7-0.4c1.5,0,2.8,0.2,4,0.6s2.2,1.1,3.3,1.9l-1,1.2c-1-0.9-2-1.5-3-1.8
		c-1-0.4-2.1-0.5-3.3-0.5c-0.8,0-1.5,0.1-2.1,0.3c-0.6,0.2-1.2,0.5-1.6,0.9c-0.5,0.4-0.8,0.8-1,1.3c-0.2,0.5-0.4,1-0.4,1.5v0.1
		c0,0.6,0.1,1.1,0.3,1.5c0.2,0.5,0.5,0.9,0.9,1.2c0.4,0.4,1.1,0.7,1.9,1c0.8,0.3,1.8,0.6,3.1,0.8c2.4,0.5,4.2,1.2,5.3,2.1
		c1.1,0.9,1.6,2.1,1.6,3.7v0.1c0,0.8-0.2,1.6-0.5,2.3c-0.4,0.7-0.8,1.3-1.4,1.8c-0.6,0.5-1.3,0.9-2.2,1.2
		C50.4,120,49.5,120.1,48.5,120.1"/>
	<polygon points="66.4,100.2 59.1,100.2 59.1,98.8 75.3,98.8 75.3,100.2 68,100.2 68,119.8 66.4,119.8 	"/>
	<rect x="80.3" y="98.8" width="1.6" height="21"/>
	<polygon points="88.3,98.8 89.8,98.8 104.3,117.1 104.3,98.8 105.8,98.8 105.8,119.8 104.6,119.8 89.8,101.1 89.8,119.8 
		88.3,119.8 	"/>
	<path d="M130.6,120.2c-1.5,0-2.9-0.3-4.2-0.8c-1.3-0.6-2.4-1.3-3.3-2.3c-0.9-1-1.7-2.1-2.2-3.4c-0.5-1.3-0.8-2.7-0.8-4.2v-0.1
		c0-1.5,0.3-2.9,0.8-4.2c0.5-1.3,1.3-2.5,2.2-3.5c0.9-1,2-1.8,3.3-2.3c1.3-0.6,2.7-0.9,4.2-0.9c0.9,0,1.8,0.1,2.6,0.2
		c0.8,0.2,1.5,0.4,2.1,0.7c0.7,0.3,1.3,0.7,1.8,1.1c0.6,0.4,1.1,0.9,1.7,1.4l-1.1,1.1c-0.5-0.4-0.9-0.9-1.4-1.2
		c-0.5-0.4-1-0.7-1.6-1s-1.2-0.5-1.9-0.6c-0.7-0.2-1.4-0.2-2.2-0.2c-1.3,0-2.4,0.2-3.5,0.7c-1.1,0.5-2,1.1-2.8,2s-1.4,1.8-1.9,3
		c-0.5,1.1-0.7,2.4-0.7,3.7v0.1c0,1.3,0.2,2.6,0.7,3.7c0.5,1.2,1.1,2.2,1.9,3c0.8,0.9,1.7,1.5,2.8,2c1.1,0.5,2.3,0.7,3.5,0.7
		c1.5,0,2.8-0.3,4-0.8c1.1-0.6,2.2-1.4,3.3-2.4l1.1,1c-0.6,0.5-1.1,1-1.7,1.5c-0.6,0.5-1.2,0.8-1.9,1.2c-0.7,0.3-1.4,0.6-2.2,0.8
		C132.4,120.1,131.5,120.2,130.6,120.2"/>
	<polygon points="143.3,98.8 144.8,98.8 144.8,108.5 158.3,108.5 158.3,98.8 159.9,98.8 159.9,119.8 158.3,119.8 158.3,110 
		144.8,110 144.8,119.8 143.3,119.8 	"/>
	<rect x="166.3" y="98.8" width="1.6" height="21"/>
	<path d="M183.9,120.2c-1.5,0-2.9-0.3-4.2-0.8c-1.3-0.6-2.4-1.3-3.3-2.3s-1.7-2.1-2.2-3.4c-0.5-1.3-0.8-2.7-0.8-4.2v-0.1
		c0-1.5,0.3-2.9,0.8-4.2c0.5-1.3,1.3-2.5,2.2-3.5c0.9-1,2-1.8,3.3-2.3c1.3-0.6,2.7-0.9,4.2-0.9c0.9,0,1.8,0.1,2.6,0.2
		c0.8,0.2,1.5,0.4,2.1,0.7s1.3,0.7,1.8,1.1c0.6,0.4,1.1,0.9,1.7,1.4l-1.1,1.1c-0.5-0.4-0.9-0.9-1.4-1.2c-0.5-0.4-1-0.7-1.6-1
		c-0.6-0.3-1.2-0.5-1.9-0.6c-0.7-0.2-1.4-0.2-2.2-0.2c-1.3,0-2.4,0.2-3.5,0.7c-1.1,0.5-2,1.1-2.8,2s-1.4,1.8-1.9,3
		c-0.5,1.1-0.7,2.4-0.7,3.7v0.1c0,1.3,0.2,2.6,0.7,3.7c0.5,1.2,1.1,2.2,1.9,3c0.8,0.9,1.7,1.5,2.8,2s2.3,0.7,3.5,0.7
		c1.5,0,2.8-0.3,4-0.8c1.1-0.6,2.2-1.4,3.3-2.4l1.1,1c-0.6,0.5-1.1,1-1.7,1.5c-0.6,0.5-1.2,0.8-1.9,1.2c-0.7,0.3-1.4,0.6-2.2,0.8
		C185.6,120.1,184.8,120.2,183.9,120.2"/>
	<polygon points="196.5,98.8 198.1,98.8 198.1,112.6 211.5,98.8 213.6,98.8 204.4,108.1 214,119.8 212,119.8 203.3,109.2 
		198.1,114.5 198.1,119.8 196.5,119.8 	"/>
	<path style="fill:none;stroke:#000000;stroke-width:0.949;" d="M49.2,57c3.2,4.5,6.2,7.2,10.7,7.2c4.6,0,7.6-3.8,7.6-9.5V3.6h5.4
		v37c0,2.2,0.1,16.4-0.4,18.4c-1.4,6.8-6.5,9.9-12.1,9.9c-6.7,0-11-3.4-14.7-8.8l-3.6,3c4.3,6.2,9.8,10.4,18.7,10.4
		c6.7,0,12.2-4.5,14.5-7.9c2.8-4.4,3-17.3,3-21.6V3.6h5.4v43.8c0,6.5,0,16.5-4.6,22c-4.2,5.1-10.1,8.7-17.9,8.7
		c-11.2,0-17.9-4.9-22.7-12l-3.6,3c5.4,8,13.3,13.7,26.8,13.7c8.8,0,15.7-3.6,20.5-9c4.6-5.2,6.9-14.3,6.9-23V3.6h5.4v50.6
		c0,10.8-2.5,18.2-8.6,24.3c-5.6,5.6-13.9,8.9-23.7,8.9c-15.7,0-24.8-6.3-30.8-15.3"/>
	<path style="fill:none;stroke:#000000;stroke-width:0.949;" d="M159.3,36.5c-3.1-5.9-7.4-10-14.9-10c-9.3,0-15.4,8.1-15.4,18v0.2
		c0,10.7,6.3,18.2,15.4,18.2c7.8,0,12.1-4.2,15.5-10.3l4.5,2.6c-4.1,7.3-9.9,12.7-20.2,12.7c-11.8,0-20.8-9.4-20.8-23.1v-0.2
		c0-12.8,8.7-23,21.1-23c9.6,0,15.6,5.1,19.4,12.3l4.5-2.7c-4.6-8.6-12.1-14.5-23.8-14.5c-15.4,0-26.7,12.2-26.7,27.9v0.2
		c0,16.6,11.7,28,26.3,28c12.8,0,20-6.5,24.9-15.1l4.5,2.6c-5.5,9.8-14.2,17.5-29.5,17.5c-17.3,0-31.7-13.3-31.7-32.9v-0.2
		c0-18.7,13.9-32.9,32.4-32.9c13.9,0,22.9,6.9,28.3,16.8l4.5-2.7c-6.2-11.2-16.8-19.1-32.8-19.1c-21.5,0-38,16.3-38,37.9v0.2
		c0,22.5,17.2,37.8,37.2,37.8c17.9,0,28-8.8,34.2-19.8l4.5,2.6c-6.9,12.2-18.4,22.2-38.9,22.2c-22.8,0-42.6-17.2-42.6-42.6v-0.2
		c0-24.6,19.1-42.9,43.7-42.9c18.1,0,30.3,8.8,37.2,21.4"/>
</g>
</svg>
