<?xml version="1.0" encoding="utf-8"?>
<!-- Generator: Adobe Illustrator 16.0.0, SVG Export Plug-In . SVG Version: 6.00 Build 0)  -->
<!DOCTYPE svg PUBLIC "-//W3C//DTD SVG 1.1//EN" "http://www.w3.org/Graphics/SVG/1.1/DTD/svg11.dtd">
<svg version="1.1" id="Layer_1" xmlns="http://www.w3.org/2000/svg" xmlns:xlink="http://www.w3.org/1999/xlink" x="0px" y="0px" viewBox="0 0 87.125 101.208" enable-background="new 0 0 87.125 101.208"
	 xml:space="preserve">
<path id="svg-path" fill-rule="evenodd" clip-rule="evenodd" fill="#231F20" d="M71.825,83.904l-1.05-1.57V80.66H69.94v1.674l-1.153,1.57
	l1.469,1.889L71.825,83.904L71.825,83.904z M71.9,82.127V80.66l2.513-0.01v1.163l-1.673,1.357L71.9,82.127L71.9,82.127z
	 M68.787,82.127V80.66l-2.516-0.01v1.163l1.676,1.357L68.787,82.127L68.787,82.127z M63.15,76.053v-1.888h3.979l1.675,2.096v3.205
	H67.55v-2.052l-1.467-1.361l-1.782,1.149L63.15,76.053L63.15,76.053z M77.587,76.053v-1.888h-3.983l-1.674,2.096v3.205h1.257v-2.052
	l1.467-1.361l1.779,1.149L77.587,76.053L77.587,76.053z M71.825,73.953v-3.975l-1.466-1.469l-1.469,1.469v3.975l1.05,2.1v3.413
	h0.835v-3.413L71.825,73.953L71.825,73.953z M18.817,83.904l-1.047-1.57V80.66h-0.837v1.674l-1.153,1.57l1.468,1.889L18.817,83.904
	L18.817,83.904z M18.894,82.127V80.66l2.514-0.01v1.163l-1.675,1.357L18.894,82.127L18.894,82.127z M15.78,82.127V80.66l-2.514-0.01
	v1.163l1.675,1.357L15.78,82.127L15.78,82.127z M10.144,76.053v-1.888h3.98l1.675,2.096v3.205h-1.257v-2.052l-1.466-1.361
	l-1.781,1.149L10.144,76.053L10.144,76.053z M24.578,76.053v-1.888h-3.981l-1.675,2.096v3.205h1.259v-2.052l1.465-1.361l1.781,1.149
	L24.578,76.053L24.578,76.053z M18.817,73.953v-3.975l-1.466-1.469l-1.467,1.469v3.975l1.048,2.1v3.413h0.837v-3.413L18.817,73.953
	L18.817,73.953z M45.829,92.479l-1.442-2.156v-2.303h-1.152v2.303l-1.582,2.156l2.017,2.592L45.829,92.479L45.829,92.479z
	 M45.934,90.036v-2.016l3.454-0.01v1.592l-2.299,1.87L45.934,90.036L45.934,90.036z M41.653,90.036v-2.016l-3.454-0.01v1.592
	l2.301,1.87L41.653,90.036L41.653,90.036z M33.909,81.688v-2.591h5.47l2.301,2.881v4.402h-1.727v-2.82l-2.014-1.872l-2.448,1.584
	L33.909,81.688L33.909,81.688z M53.738,81.688v-2.591h-5.465l-2.299,2.881v4.402h1.722v-2.82l2.011-1.872l2.453,1.584L53.738,81.688
	L53.738,81.688z M45.829,78.808v-5.465l-2.017-2.02l-2.015,2.02v5.465l1.438,2.881v4.692h1.152v-4.692L45.829,78.808L45.829,78.808z
	 M50.878,17.237l-5.343-0.138l-1.783-4.798l-1.509,4.798l-5.207,0.138l4.247,3.287l-1.781,5.209l4.388-3.152l4.523,3.152
	l-1.783-5.069L50.878,17.237L50.878,17.237z M24.634,15.275l-4.936-0.135c0,0-2.056-5.347-2.056-5.207L16,15.14l-5.347,0.135
	l4.248,2.877l-1.506,5.208l4.247-3.151l4.66,3.151l-1.781-5.208L24.634,15.275L24.634,15.275z M77.507,15.275l-5.341-0.135
	l-1.783-5.347L68.46,15.14l-5.206,0.135l4.388,2.877l-1.507,5.208l4.248-3.151l4.523,3.151l-1.512-5.208L77.507,15.275
	L77.507,15.275z M66.543,62.316H47.247l-3.509,3.178l-3.51-3.178H21.261V37.425l3.178-2.412l0.11,23.902h16.667l2.74,2.633
	l2.963-2.633h16.227l0.112-23.902l3.284,2.632V62.316L66.543,62.316z M60.293,55.958H46.149l-2.412,2.413l-2.194-2.413H27.4V32.929
	h14.144l2.194,2.191l2.304-2.191h14.251V55.958L60.293,55.958z M18.078,53.544c-4.603-0.44-7.675-1.208-13.815-2.633V37.425
	c5.483,1.539,9.76,1.647,13.815,2.741V53.544L18.078,53.544z M82.995,50.803l-13.158,2.521c-0.111-0.988,0-13.158,0-13.158
	c4.383-0.657,7.565-1.533,13.158-2.741V50.803L82.995,50.803z M82.995,23.83c-25.113,5.812-53.842,6.688-78.732,0V5.518
	c24.012,5.371,54.932,6.143,78.732,0V23.83L82.995,23.83z M82.995,74.931c-1.209,8.99-11.516,11.946-14.808,13.591
	c-8.11,3.181-16.229,5.701-24.341,8.993C12.487,85.673,4.704,84.025,4.263,74.931c0,0-0.108-9.437,0-10.097
	c24.671,5.483,52.413,5.922,78.732,0V74.931L82.995,74.931z M86.719,73.496V0.693C59.964,7.822,29.045,7.709,0.647,0.801
	c0,3.399,0,54.935-0.11,72.92c0.11,6.354-1.316,10.849,23.902,20.173c5.812,1.977,13.158,4.717,19.299,6.8
	c5.481-1.976,11.075-3.839,16.448-6.025C68.628,91.044,86.835,87.755,86.719,73.496L86.719,73.496z"/>
</svg>
