<?xml version="1.0" encoding="utf-8"?>
<!-- Generator: Adobe Illustrator 16.0.0, SVG Export Plug-In . SVG Version: 6.00 Build 0)  -->
<!DOCTYPE svg PUBLIC "-//W3C//DTD SVG 1.1//EN" "http://www.w3.org/Graphics/SVG/1.1/DTD/svg11.dtd">
<svg version="1.1" xmlns="http://www.w3.org/2000/svg" xmlns:xlink="http://www.w3.org/1999/xlink" x="0px" y="0px"
	 width="153.333px" height="152.333px" viewBox="0 0 153.333 152.333" enable-background="new 0 0 153.333 152.333"
	 xml:space="preserve">
<g id="Inner_Black">
	<path d="M140.789,76.331c0,35.65-28.898,64.55-64.549,64.55s-64.551-28.899-64.551-64.55c0-35.65,28.9-64.55,64.551-64.55
		S140.789,40.681,140.789,76.331"/>
</g>
<g id="D">
	<path fill="#FFFFFF" d="M49.479,61.3c0-2.997-0.346-19.365-0.577-21.094c-0.345-2.767-1.844-3.228-3.803-3.228h-5.764
		c-0.576,0-0.922-0.115-0.922-0.807v-3.342c0-0.461,0.346-0.577,0.807-0.577c1.498,0,6.57,0.346,18.097,0.346
		c2.997,0,14.524-0.346,17.175-0.346c15.676,0,28.125,1.384,39.074,10.49c7.609,6.34,12.91,15.907,12.91,29.278
		c0,13.257-3.803,22.017-11.41,30.316c-11.182,12.103-30.891,12.218-38.152,12.218c-1.846,0-15.447-0.346-21.787-0.346
		c-10.028,0-14.639,0.346-16.253,0.346c-0.576,0-0.807-0.23-0.807-1.037v-2.997c0-0.462,0.346-0.692,0.922-0.692h5.994
		c2.19,0,3.458-0.922,3.689-2.766c0.346-2.421,0.807-28.357,0.807-37.117V61.3z M66.769,72.481c0,1.498,0.115,21.094,0.231,28.241
		c0,2.305,0.461,4.148,1.959,6.34c1.383,2.074,5.302,2.766,9.222,2.766c6.686,0,15.561-3.342,21.553-11.295
		c4.611-6.11,8.186-15.562,8.186-26.283c0-9.452-3.918-19.134-9.336-25.128c-6.109-6.801-16.254-10.489-22.939-10.489
		c-3.227,0-4.957,0.115-6.455,0.922c-1.729,0.807-2.189,2.651-2.306,4.956c-0.115,4.841-0.115,19.942-0.115,21.786V72.481z"/>
</g>
<g id="Outter_Black">
	<g id="XMLID_1_">
		<g>
			<path d="M76.683,1.75c41.141,0,74.5,33.36,74.5,74.5c0,41.13-33.359,74.5-74.5,74.5c-41.129,0-74.49-33.37-74.49-74.5
				C2.193,35.109,35.554,1.75,76.683,1.75z M145.013,76.25c0-37.74-30.59-68.33-68.33-68.33c-37.74,0-68.33,30.59-68.33,68.33
				s30.59,68.33,68.33,68.33C114.423,144.58,145.013,113.99,145.013,76.25z"/>
		</g>
	</g>
</g>
</svg>
