<?xml version="1.0" encoding="utf-8"?>
<!-- Generator: Adobe Illustrator 16.0.0, SVG Export Plug-In . SVG Version: 6.00 Build 0)  -->
<!DOCTYPE svg PUBLIC "-//W3C//DTD SVG 1.1//EN" "http://www.w3.org/Graphics/SVG/1.1/DTD/svg11.dtd">
<svg version="1.1" id="Layer_1" xmlns="http://www.w3.org/2000/svg" xmlns:xlink="http://www.w3.org/1999/xlink" x="0px" y="0px"
 viewBox="0 0 92.333 54.167" enable-background="new 0 0 92.333 54.167" xml:space="preserve">
<path fill="none" stroke="#292929" stroke-width="1.25" d="M11.691,34.71c1.887,2.653,3.703,4.263,6.358,4.263
	c2.725,0,4.542-2.236,4.542-5.662V2.916h3.186v21.989c0,1.287,0.042,9.761-0.258,10.956c-0.847,4.023-3.865,5.878-7.218,5.878
	c-3.998,0-6.527-2.04-8.749-5.227l-2.138,1.802c2.556,3.718,5.799,6.193,11.139,6.193c3.982,0,7.272-2.67,8.613-4.693
	c1.67-2.611,1.797-10.307,1.797-12.877V2.916h3.188v26.053c0,3.857,0.004,9.81-2.726,13.104c-2.511,3.03-6.01,5.199-10.621,5.199
	c-6.68,0-10.634-2.906-13.528-7.154L3.138,41.92c3.229,4.779,7.896,8.12,15.918,8.12c5.241,0,9.332-2.17,12.201-5.381
	c2.738-3.065,4.081-8.515,4.081-13.658V2.916h3.186v30.116c0,6.428-1.467,10.831-5.1,14.464c-3.354,3.354-8.246,5.312-14.116,5.312
	c-9.363,0-14.744-3.772-18.308-9.085"/>
<path fill="none" stroke="#292929" stroke-width="1.25" d="M77.163,22.481c-1.816-3.494-4.403-5.939-8.874-5.939
	c-5.521,0-9.154,4.82-9.154,10.689v0.141c0,6.359,3.773,10.83,9.154,10.83c4.61,0,7.197-2.516,9.224-6.149l2.696,1.523
	c-2.445,4.36-5.883,7.562-12.004,7.562c-7.015,0-12.396-5.619-12.396-13.738v-0.14c0-7.616,5.185-13.653,12.522-13.653
	c5.729,0,9.251,3.004,11.529,7.294l2.697-1.579c-2.739-5.087-7.197-8.651-14.186-8.651c-9.153,0-15.89,7.253-15.89,16.617v0.14
	c0,9.882,6.988,16.645,15.638,16.645c7.631,0,11.922-3.885,14.787-8.972l2.696,1.521c-3.282,5.814-8.427,10.386-17.566,10.386
	c-10.285,0-18.881-7.912-18.881-19.553v-0.139c0-11.111,8.287-19.579,19.258-19.579c8.245,0,13.641,4.121,16.841,10.007l2.696-1.58
	c-3.66-6.68-9.992-11.361-19.494-11.361c-12.788,0-22.627,9.685-22.627,22.541v0.14c0,13.403,10.201,22.46,22.123,22.46
	c10.649,0,16.645-5.255,20.348-11.796L91,39.671c-4.124,7.268-10.973,13.206-23.131,13.206c-13.556,0-25.365-10.203-25.365-25.365
	v-0.139c0-14.605,11.39-25.505,25.994-25.505c10.762,0,18.028,5.24,22.151,12.717"/>
</svg>
