<?xml version="1.0" encoding="utf-8"?>
<!-- Generator: Adobe Illustrator 16.0.0, SVG Export Plug-In . SVG Version: 6.00 Build 0)  -->
<!DOCTYPE svg PUBLIC "-//W3C//DTD SVG 1.1//EN" "http://www.w3.org/Graphics/SVG/1.1/DTD/svg11.dtd">
<svg version="1.1" id="Layer_1" xmlns="http://www.w3.org/2000/svg" xmlns:xlink="http://www.w3.org/1999/xlink" x="0px" y="0px"
	 width="363.367px" height="203.5px" viewBox="0 0 363.367 203.5" enable-background="new 0 0 363.367 203.5" xml:space="preserve">
<g>
	<path d="M172.067,31.121c-18.889-18.887-44.003-29.287-70.712-29.287c-26.712,0-51.823,10.4-70.712,29.29
		C11.789,49.977,1.405,75.088,1.405,101.833c0,26.746,10.384,51.859,29.239,70.714c18.889,18.885,44.003,29.287,70.712,29.287
		c26.712,0,51.823-10.402,70.712-29.291c18.853-18.851,29.238-43.964,29.238-70.71C201.306,75.088,190.92,49.977,172.067,31.121
		 M144.957,145.432c-11.648,11.645-27.129,18.06-43.601,18.06c-16.472,0-31.954-6.415-43.602-18.057
		c-24.038-24.043-24.038-63.159,0-87.197c11.647-11.648,27.129-18.06,43.602-18.06c16.472,0,31.953,6.412,43.601,18.056
		C168.994,82.275,168.994,121.392,144.957,145.432"/>
	<path d="M334.133,31.121c-18.889-18.887-44.008-29.287-70.712-29.287c-19.824,0-38.757,5.753-54.925,16.426
		c8.008,10.24,14.441,21.47,19.166,33.404c10.376-7.428,22.739-11.486,35.759-11.486c16.469,0,31.952,6.412,43.6,18.056
		c24.036,24.041,24.036,63.158,0,87.198c-11.647,11.645-27.131,18.06-43.6,18.06c-13.02,0-25.383-4.064-35.759-11.487
		c-4.728,11.933-11.158,23.163-19.166,33.401c16.168,10.675,35.104,16.429,54.925,16.429c26.71,0,51.823-10.402,70.712-29.291
		c18.852-18.851,29.234-43.964,29.234-70.71C363.367,75.088,352.984,49.977,334.133,31.121"/>
</g>
</svg>
