<svg class="w2 w3-ns self-center" version="1.1" id="Layer_1" xmlns="http://www.w3.org/2000/svg" x="0" y="0" viewBox="0 0 153 87.5" xml:space="preserve">
	<g class="logo" stroke-width=".949"><path d="M18.83 55.96c3.173 4.46 6.226 7.165 10.69 7.165 4.583 0 7.638-3.76 7.638-9.52v-51.1h5.357v36.97c0 2.162.07 16.41-.435 18.42-1.424 6.763-6.498 9.88-12.136 9.88-6.72 0-10.973-3.43-14.71-8.785l-3.593 3.03c4.3 6.25 9.75 10.41 18.728 10.41 6.695 0 12.227-4.486 14.48-7.89 2.81-4.39 3.02-17.328 3.02-21.65V2.506h5.36v43.802c0 6.485.007 16.493-4.584 22.03-4.22 5.097-10.104 8.743-17.856 8.743-11.23 0-17.88-4.887-22.744-12.03L4.45 68.08c5.427 8.036 13.274 13.652 26.76 13.652 8.812 0 15.69-3.647 20.515-9.047 4.604-5.153 6.86-14.315 6.86-22.963V2.505h5.356V53.14c0 10.805-2.466 18.208-8.574 24.316-5.64 5.638-13.863 8.93-23.73 8.93-15.744 0-24.79-6.343-30.782-15.274M128.906 35.4c-3.053-5.876-7.402-9.986-14.92-9.986-9.28 0-15.39 8.104-15.39 17.972v.237c0 10.69 6.343 18.21 15.39 18.21 7.752 0 12.102-4.23 15.508-10.34l4.533 2.562c-4.11 7.33-9.89 12.71-20.182 12.71-11.793 0-20.842-9.445-20.842-23.096v-.236c0-12.805 8.717-22.955 21.055-22.955 9.63 0 15.553 5.05 19.383 12.263l4.536-2.655c-4.605-8.552-12.1-14.544-23.85-14.544-15.39 0-26.715 12.194-26.715 27.937v.237c0 16.612 11.75 27.984 26.292 27.984 12.83 0 20.045-6.53 24.86-15.084l4.534 2.56c-5.52 9.775-14.168 17.46-29.535 17.46-17.29 0-31.74-13.303-31.74-32.875v-.233c0-18.68 13.933-32.918 32.376-32.918 13.863 0 22.934 6.928 28.314 16.823l4.533-2.656c-6.154-11.23-16.8-19.1-32.775-19.1-21.5 0-38.04 16.28-38.04 37.896v.234c0 22.534 17.15 37.762 37.194 37.762 17.902 0 27.982-8.837 34.21-19.833l4.536 2.562C145.234 76.516 133.72 86.5 113.278 86.5c-22.79 0-42.644-17.154-42.644-42.646v-.234c0-24.556 19.148-42.88 43.703-42.88 18.092 0 30.31 8.81 37.24 21.38"/></g>
</svg>